<?xml version="1.0" encoding="utf-8"?>
<!-- Generator: Adobe Illustrator 17.0.0, SVG Export Plug-In . SVG Version: 6.00 Build 0)  -->
<!DOCTYPE svg PUBLIC "-//W3C//DTD SVG 1.1//EN" "http://www.w3.org/Graphics/SVG/1.1/DTD/svg11.dtd">
<svg version="1.1" id="Layer_1" xmlns="http://www.w3.org/2000/svg" xmlns:xlink="http://www.w3.org/1999/xlink" x="0px" y="0px"
	 width="190.064px" height="65.358px" viewBox="0 0 190.064 65.358" enable-background="new 0 0 190.064 65.358"
	 xml:space="preserve">
<g>
	<g>
		<path fill-rule="evenodd" clip-rule="evenodd" fill="#881D1E" d="M77.119,12.475l-2.701-7.439
			c-0.197-0.661-0.461-1.122-0.987-1.518h2.567c0,0.134-0.064,0.266-0.064,0.396c0,0.266,0.064,0.595,0.197,0.989l2.568,7.178
			l2.568-6.914c0.064-0.198,0.064-0.332,0.064-0.461c0-0.462-0.328-0.857-0.657-1.188h2.636l-4.348,11.065l-0.988-0.724
			C77.645,13.464,77.383,13.068,77.119,12.475z"/>
		<path fill-rule="evenodd" clip-rule="evenodd" fill="#881D1E" d="M84.627,5.167c0-0.658-0.132-1.119-0.789-1.515h3.093
			c-0.46,0.395-0.724,0.723-0.724,1.578v7.511c0,0.458,0.461,1.185,0.988,1.316h-3.49c0.395-0.131,0.921-0.593,0.921-1.316V5.167z"
			/>
		<path fill-rule="evenodd" clip-rule="evenodd" fill="#881D1E" d="M88.775,5.495c0-0.592,0-1.251-0.592-1.711h5.07
			c0.197,0,0.461,0,0.723-0.131v1.975c-0.46-0.527-1.25-0.658-2.303-0.658c-0.396,0-0.855,0-1.318,0.066v2.832h1.516
			c0.525,0,0.855,0,1.119-0.133v1.777c-0.264-0.394-0.855-0.525-1.449-0.525h-1.186v3.754c0.726,0.065,1.516,0.261,2.24,0.261
			c0.921,0,1.975-0.261,2.896-1.053l-0.922,2.108h-6.387c0.461-0.46,0.592-0.858,0.592-1.316V5.495z"/>
		<path fill-rule="evenodd" clip-rule="evenodd" fill="#881D1E" d="M98.26,4.772h-1.187c-0.923,0-1.646,0.264-2.107,0.593
			l0.462-1.978c0.131,0.13,0.527,0.13,0.855,0.13h6.189c0.396,0,0.527,0,0.858-0.13l-0.593,1.978
			c-0.132-0.33-0.726-0.593-1.384-0.593h-1.447v8.23c0,0.595,0.526,0.857,0.855,1.055h-3.227c0.461-0.198,0.725-0.593,0.725-1.055
			V4.772z"/>
		<path fill-rule="evenodd" clip-rule="evenodd" fill="#881D1E" d="M104.252,5.495c0-1.447-0.658-1.581-0.988-1.843h2.305
			l6.323,8.099V5.365c0-0.99-0.329-1.582-0.923-1.713h3.029c-0.461,0.395-0.855,0.262-0.986,1.578v9.353
			c-0.461,0-1.318-0.657-1.713-1.119l-5.928-7.573v6.584c0,0.855,0.197,1.252,0.856,1.582h-2.964c0.461-0.33,0.856-0.46,0.988-1.451
			V5.495z"/>
		<path fill-rule="evenodd" clip-rule="evenodd" fill="#881D1E" d="M119.662,3.652h0.989l3.687,8.954
			c0.33,0.724,0.791,0.991,1.252,1.451h-3.358c0.461-0.198,0.593-0.46,0.593-0.727c0-0.262-0.132-0.524-0.199-0.724l-0.986-2.501
			h-1.977V8.986h1.45l-1.45-3.82l0,0V3.652z M118.543,4.772c0.066-0.132,0.066-0.332,0.066-0.462c0-0.262-0.197-0.46-0.461-0.657
			h1.514v1.515l-1.514,3.82h1.514v1.118h-1.911l-0.986,2.702c0,0.196-0.066,0.394-0.066,0.46c0,0.396,0.264,0.524,0.592,0.791
			h-3.094c0.855-0.593,1.251-1.251,1.316-1.712L118.543,4.772z"/>
		<path fill-rule="evenodd" clip-rule="evenodd" fill="#881D1E" d="M127.367,5.23c0-0.261,0-0.458,0-0.59
			c0-0.526-0.131-0.592-0.525-0.987h2.766l3.292,7.704l2.898-7.704h2.831c-0.461,0.197-0.658,0.591-0.658,0.987
			c0,0.066,0.066,0.195,0.066,0.263l0.988,7.572c0.064,0.593,0.395,1.384,0.988,1.582h-3.359c0.657-0.131,0.79-0.923,0.79-1.316
			v-0.266l-0.923-7.11l-3.49,8.823c-0.461-0.131-0.988-0.858-1.316-1.582l-3.162-7.241l-0.986,7.11c0,0.725,0.131,1.122,0.79,1.582
			h-2.833c0.593-0.33,0.857-1.251,0.857-1.582L127.367,5.23z"/>
		<path fill-rule="evenodd" clip-rule="evenodd" fill="#881D1E" d="M79.291,20.642h0.988l3.756,8.891
			c0.328,0.792,0.724,0.987,1.25,1.516h-3.359c0.463-0.198,0.594-0.529,0.594-0.724c0-0.265-0.131-0.595-0.197-0.792l-1.055-2.437
			h-1.977v-1.121h1.516l-1.516-3.883V20.642z M78.238,21.763c0-0.2,0.066-0.398,0.066-0.462c0-0.33-0.264-0.525-0.395-0.659h1.381
			v1.45l0,0l-1.381,3.883h1.381v1.121h-1.777l-0.988,2.699c-0.065,0.134-0.131,0.328-0.131,0.461c0,0.331,0.329,0.528,0.592,0.793
			h-3.029c0.855-0.594,1.186-1.253,1.318-1.713L78.238,21.763z"/>
		<path fill-rule="evenodd" clip-rule="evenodd" fill="#881D1E" d="M86.207,21.893c0-0.658-0.263-0.988-0.658-1.381h2.83
			c-0.195,0.264-0.461,0.854-0.461,1.381v5.599c0,2.041,1.385,2.568,2.371,2.568c1.714,0,2.767-0.856,2.767-2.106v-5.6
			c0-0.989-0.329-1.449-0.79-1.842h2.963c-0.46,0.46-0.592,1.119-0.592,1.842v7.179c0,0.792,0.132,1.251,0.725,1.516h-2.306v-0.989
			c-0.46,0.394-0.921,1.25-3.028,1.25c-2.964,0-3.82-1.975-3.82-3.622V21.893z"/>
		<path fill-rule="evenodd" clip-rule="evenodd" fill="#881D1E" d="M99.906,20.379h0.395c0.592,0,1.844,0.133,2.37,0.397v1.711
			c-0.659-0.462-1.778-0.923-2.765-0.923c-0.66,0-1.318,0.264-1.713,0.923c-0.067,0.133-0.197,0.33-0.197,0.526
			c0,0.659,0.922,1.252,1.844,1.712l1.712,0.857c0.725,0.393,2.108,1.248,2.108,2.501c0,2.04-1.976,3.296-4.48,3.296
			c-0.853,0-1.775-0.135-2.699-0.465l-0.395-1.975c0.988,0.856,2.241,1.253,3.227,1.253c1.12,0,2.174-0.462,2.371-1.253
			c0-0.129,0-0.328,0-0.395c0-0.722-0.526-1.249-1.646-1.844l-1.711-0.856c-0.858-0.393-1.979-1.248-2.109-2.438
			C96.217,21.301,97.996,20.379,99.906,20.379z"/>
		<path fill-rule="evenodd" clip-rule="evenodd" fill="#881D1E" d="M106.689,21.763h-1.251c-0.856,0-1.581,0.195-2.107,0.59
			l0.526-1.975c0.132,0.133,0.526,0.133,0.856,0.133h6.189c0.396,0,0.527,0,0.857-0.133l-0.594,1.975
			c-0.131-0.395-0.725-0.59-1.381-0.59h-1.451v8.166c0,0.59,0.46,0.854,0.857,1.119h-3.227c0.461-0.265,0.724-0.594,0.724-1.119
			V21.763z"/>
		<path fill-rule="evenodd" clip-rule="evenodd" fill="#881D1E" d="M112.418,22.091c0-1.316-0.33-1.316-0.725-1.58h3.491
			c2.106,0,3.688,0.723,3.688,2.566c0,1.647-1.318,2.637-2.438,2.897c1.58,1.979,2.963,4.085,4.809,5.073h-1.713
			c-0.658,0-1.186-0.068-1.91-0.989l-3.227-4.345c1.844-0.659,2.766-1.055,2.766-2.241v-0.263c0-0.987-0.725-1.58-2.041-1.58
			c-0.266,0-0.594,0.066-0.922,0.133v7.898c0,0.663,0.197,1.122,0.722,1.386h-3.226c0.461-0.134,0.725-0.594,0.725-1.253V22.091z"/>
		<path fill-rule="evenodd" clip-rule="evenodd" fill="#881D1E" d="M125.195,20.642h0.988l3.688,8.891
			c0.329,0.792,0.791,0.987,1.251,1.516h-3.292c0.393-0.198,0.526-0.529,0.526-0.724c0-0.265-0.133-0.595-0.198-0.792l-0.989-2.437
			h-1.974v-1.121h1.449l-1.449-3.883l0,0V20.642z M124.076,21.763c0.064-0.2,0.064-0.398,0.064-0.462
			c0-0.33-0.197-0.525-0.461-0.659h1.516v1.45l-1.516,3.883h1.516v1.121h-1.91l-0.988,2.699c0,0.134-0.065,0.328-0.065,0.461
			c0,0.331,0.263,0.528,0.593,0.793h-3.096c0.855-0.594,1.251-1.253,1.384-1.713L124.076,21.763z"/>
		<path fill-rule="evenodd" clip-rule="evenodd" fill="#881D1E" d="M132.307,21.959c0-0.987-0.264-0.857-0.658-1.317h3.096
			c-0.197,0.263-0.725,0.33-0.725,1.45v7.57c0.855,0.068,1.516,0.2,2.174,0.2c0.986,0,1.91-0.263,2.832-0.923l-0.922,2.109h-6.521
			c0.593-0.462,0.725-0.989,0.725-1.386v-0.327V21.959z"/>
		<path fill-rule="evenodd" clip-rule="evenodd" fill="#881D1E" d="M140.869,22.091c0-0.594-0.131-1.12-0.791-1.45h3.096
			c-0.461,0.33-0.725,0.723-0.725,1.582v7.438c0,0.53,0.461,1.252,0.988,1.386h-3.424c0.328-0.134,0.855-0.594,0.855-1.386V22.091z"
			/>
		<path fill-rule="evenodd" clip-rule="evenodd" fill="#881D1E" d="M149.102,20.642h0.986l3.689,8.891
			c0.329,0.792,0.79,0.987,1.253,1.516h-3.295c0.396-0.198,0.527-0.529,0.527-0.724c0-0.265-0.131-0.595-0.198-0.792l-0.985-2.437
			h-1.977v-1.121h1.447l-1.447-3.883V20.642z M147.98,21.763c0.066-0.2,0.066-0.398,0.066-0.462c0-0.33-0.197-0.525-0.462-0.659
			h1.516v1.45l-1.516,3.883h1.516v1.121h-1.912l-0.986,2.699c0,0.134-0.066,0.328-0.066,0.461c0,0.331,0.33,0.528,0.592,0.793
			h-3.094c0.855-0.594,1.25-1.253,1.382-1.713L147.98,21.763z"/>
		<path fill-rule="evenodd" clip-rule="evenodd" fill="#881D1E" d="M75.34,39.082c0-0.593-0.131-1.122-0.789-1.45h3.094
			c-0.459,0.328-0.723,0.724-0.723,1.58v7.443c0,0.526,0.461,1.251,0.988,1.382h-3.492c0.395-0.131,0.922-0.658,0.922-1.382V39.082z
			"/>
		<path fill-rule="evenodd" clip-rule="evenodd" fill="#881D1E" d="M79.424,39.477c0-1.517-0.66-1.647-0.987-1.845h2.304
			l6.323,8.035v-6.322c0-0.989-0.329-1.645-0.923-1.713h3.031c-0.463,0.328-0.857,0.198-0.988,1.58v9.286
			c-0.461,0-1.318-0.591-1.713-1.118l-5.994-7.573v6.585c0,0.854,0.264,1.251,0.855,1.646h-2.896
			c0.46-0.395,0.854-0.526,0.987-1.515V39.477z"/>
		<path fill-rule="evenodd" clip-rule="evenodd" fill="#881D1E" d="M91.805,38.688H90.62c-0.923,0-1.648,0.261-2.108,0.657
			l0.461-1.975c0.132,0.134,0.527,0.134,0.856,0.134h6.191c0.396,0,0.527,0,0.857-0.134l-0.593,1.975
			c-0.133-0.396-0.725-0.657-1.383-0.657h-1.449v8.23c0,0.593,0.525,0.855,0.856,1.119h-3.227c0.46-0.264,0.724-0.658,0.724-1.119
			V38.688z"/>
		<path fill-rule="evenodd" clip-rule="evenodd" fill="#881D1E" d="M97.797,39.477c0-0.658,0-1.25-0.592-1.776h5.071
			c0.263,0,0.461,0,0.724-0.068v1.911c-0.395-0.526-1.252-0.594-2.238-0.594c-0.461,0-0.922,0-1.383,0v2.832h1.514
			c0.527,0,0.855,0,1.119-0.063v1.71c-0.264-0.396-0.854-0.526-1.448-0.526h-1.185v3.753c0.725,0.131,1.514,0.263,2.238,0.263
			c0.988,0,1.977-0.263,2.898-0.987l-0.922,2.106h-6.389c0.461-0.526,0.592-0.856,0.592-1.382V39.477z"/>
		<path fill-rule="evenodd" clip-rule="evenodd" fill="#881D1E" d="M105.965,39.082c0-1.381-0.329-1.381-0.725-1.578h3.49
			c2.107,0,3.688,0.723,3.688,2.566c0,1.648-1.316,2.633-2.438,2.833c1.582,2.042,2.965,4.15,4.809,5.135h-1.713
			c-0.658,0-1.185-0.131-1.91-0.985l-3.226-4.35c1.845-0.723,2.766-1.116,2.766-2.239v-0.26c0-0.991-0.726-1.582-2.042-1.582
			c-0.263,0-0.592,0-0.922,0.066v7.967c0,0.59,0.198,1.118,0.725,1.382h-3.227c0.461-0.131,0.725-0.658,0.725-1.251V39.082z"/>
		<path fill-rule="evenodd" clip-rule="evenodd" fill="#881D1E" d="M114.592,39.477c0-1.517-0.594-1.647-0.988-1.845h2.369
			l6.324,8.035v-6.322c0-0.989-0.329-1.645-0.988-1.713h3.096c-0.461,0.328-0.855,0.198-0.988,1.58v9.286
			c-0.461,0-1.316-0.591-1.711-1.118l-5.995-7.573v6.585c0,0.854,0.262,1.251,0.856,1.646h-2.963
			c0.527-0.395,0.922-0.526,0.988-1.515V39.477z"/>
		<path fill-rule="evenodd" clip-rule="evenodd" fill="#881D1E" d="M130.002,37.632h0.989l3.754,8.891
			c0.33,0.791,0.725,0.989,1.252,1.515h-3.359c0.461-0.264,0.592-0.526,0.592-0.792c0-0.261-0.131-0.522-0.197-0.723l-1.053-2.499
			h-1.977v-1.122h1.515l-1.515-3.821l0,0V37.632z M128.949,38.688c0-0.133,0.065-0.332,0.065-0.398c0-0.33-0.198-0.525-0.462-0.658
			h1.449v1.45l-1.449,3.821h1.449v1.122h-1.843l-0.989,2.763c-0.065,0.132-0.13,0.33-0.13,0.395c0,0.396,0.328,0.525,0.592,0.856
			h-3.029c0.857-0.658,1.186-1.251,1.318-1.777L128.949,38.688z"/>
		<path fill-rule="evenodd" clip-rule="evenodd" fill="#881D1E" d="M138.366,38.688h-1.251c-0.856,0-1.58,0.261-2.107,0.657
			l0.527-1.975c0.131,0.134,0.461,0.134,0.854,0.134h6.191c0.33,0,0.463,0,0.857-0.134l-0.594,1.975
			c-0.131-0.396-0.789-0.657-1.382-0.657h-1.448v8.23c0,0.593,0.459,0.855,0.855,1.119h-3.229c0.463-0.264,0.726-0.658,0.726-1.119
			V38.688z"/>
		<path fill-rule="evenodd" clip-rule="evenodd" fill="#881D1E" d="M144.359,39.082c0-0.593-0.132-1.122-0.79-1.45h3.095
			c-0.461,0.328-0.725,0.724-0.725,1.58v7.443c0,0.526,0.527,1.251,0.988,1.382h-3.424c0.328-0.131,0.855-0.658,0.855-1.382V39.082z
			"/>
		<path fill-rule="evenodd" clip-rule="evenodd" fill="#881D1E" d="M153.25,37.504c3.227,0,5.73,1.973,5.795,5.331
			c0.066,2.307-1.779,5.533-5.598,5.533c-0.066,0-0.132,0-0.197,0v-1.186c0.065,0,0.132,0,0.197,0c2.304,0,3.756-1.908,3.756-3.952
			v-0.327c0-2.041-1.582-4.214-3.953-4.281V37.504z M153.184,37.504h0.066v1.118c-0.066,0-0.131,0-0.131,0
			c-1.846,0-3.82,1.382-3.82,4.081c0,0.069,0.064,0.2,0.064,0.2c0,2.436,1.846,4.15,3.887,4.279v1.186
			c-3.689-0.064-5.73-2.371-5.861-5.334C147.258,40.862,148.838,37.504,153.184,37.504z"/>
		<path fill-rule="evenodd" clip-rule="evenodd" fill="#881D1E" d="M160.822,39.477c0-1.517-0.658-1.647-0.987-1.845h2.305
			l6.322,8.035v-6.322c0-0.989-0.33-1.645-0.922-1.713h3.029c-0.461,0.328-0.856,0.198-0.988,1.58v9.286
			c-0.461,0-1.316-0.591-1.712-1.118l-5.994-7.573v6.585c0,0.854,0.264,1.251,0.858,1.646h-2.899
			c0.462-0.395,0.856-0.526,0.987-1.515V39.477z"/>
		<path fill-rule="evenodd" clip-rule="evenodd" fill="#881D1E" d="M176.168,37.632h1.053l3.689,8.891
			c0.328,0.791,0.725,0.989,1.252,1.515h-3.359c0.461-0.264,0.592-0.526,0.592-0.792c0-0.261-0.131-0.522-0.197-0.723l-0.988-2.499
			h-2.041v-1.122h1.516l-1.516-3.821V37.632z M175.113,38.688c0.066-0.133,0.066-0.332,0.066-0.398c0-0.33-0.197-0.525-0.46-0.658
			h1.448v1.45l0,0l-1.448,3.821h1.448v1.122h-1.844l-0.989,2.763c0,0.132-0.064,0.33-0.064,0.395c0,0.396,0.264,0.525,0.592,0.856
			h-3.096c0.857-0.658,1.186-1.251,1.318-1.777L175.113,38.688z"/>
		<path fill-rule="evenodd" clip-rule="evenodd" fill="#881D1E" d="M183.347,38.949c0-0.989-0.263-0.854-0.659-1.317h3.096
			c-0.264,0.198-0.725,0.328-0.725,1.45v7.574c0.791,0.068,1.516,0.198,2.174,0.198c0.988,0,1.908-0.263,2.831-0.922l-0.923,2.106
			h-6.584c0.658-0.46,0.79-0.985,0.79-1.382v-0.395V38.949z"/>
		<path fill-rule="evenodd" clip-rule="evenodd" fill="#881D1E" d="M77.975,54.296h0.396c0.593,0,1.844,0.133,2.305,0.393v1.714
			c-0.593-0.46-1.712-0.922-2.7-0.922c-0.658,0-1.316,0.266-1.712,0.922c0,0.198-0.132,0.328-0.132,0.529
			c0,0.655,0.922,1.249,1.779,1.71l1.646,0.922c0.79,0.329,2.108,1.187,2.108,2.434c0,2.111-1.977,3.36-4.348,3.36
			c-0.856,0-1.844-0.196-2.766-0.528l-0.33-1.907c0.988,0.79,2.174,1.25,3.227,1.25c1.054,0,2.108-0.526,2.24-1.25
			c0.064-0.199,0.064-0.33,0.064-0.459c0-0.659-0.525-1.256-1.644-1.844l-1.713-0.858c-0.79-0.394-1.977-1.251-2.042-2.437
			C74.353,55.217,76.131,54.296,77.975,54.296z"/>
		<path fill-rule="evenodd" clip-rule="evenodd" fill="#881D1E" d="M87.854,54.296c0.855,0,1.975,0.133,2.965,0.393v1.845
			c-1.254-0.724-2.307-0.856-3.096-0.856c-2.307,0-3.49,1.844-3.49,3.69c0,2.106,1.447,4.411,4.016,4.411
			c0.131,0,0.264-0.066,0.33-0.066c1.25,0,2.042-0.329,3.029-0.79l-0.658,1.843c-0.791,0.264-1.713,0.396-2.57,0.396
			c-2.896,0-5.859-1.58-5.99-5.005C82.322,57.454,83.506,54.296,87.854,54.296z"/>
		<path fill-rule="evenodd" clip-rule="evenodd" fill="#881D1E" d="M92.859,56.533c0-0.59,0-1.381-0.594-1.845h2.963
			c-0.525,0.266-0.791,0.858-0.791,1.714v2.373h5.73v-2.503c0-0.595-0.197-1.318-0.855-1.584h3.227
			c-0.263,0.395-0.724,0.463-0.724,1.584v7.243c0,0.724,0.132,1.118,0.724,1.448h-3.094c0.658-0.198,0.723-0.854,0.723-1.318v-3.622
			h-5.73v3.491c0,0.594,0.266,1.118,0.791,1.448h-3.094c0.461-0.198,0.725-0.854,0.725-1.448V56.533z"/>
		<path fill-rule="evenodd" clip-rule="evenodd" fill="#881D1E" d="M109.06,54.428c3.228,0.063,5.729,1.974,5.794,5.333
			c0.066,2.371-1.777,5.597-5.598,5.597c-0.064,0-0.131,0-0.196,0v-1.248c0.065,0,0.132,0,0.196,0c2.307,0,3.756-1.911,3.756-3.952
			v-0.264c0-2.043-1.582-4.216-3.952-4.346V54.428z M108.994,54.428h0.066v1.118c-0.066,0-0.132,0-0.132,0
			c-1.844,0-3.818,1.448-3.818,4.084c0,0.066,0.064,0.197,0.064,0.262c0,2.437,1.844,4.15,3.886,4.216v1.248
			c-3.688-0.068-5.729-2.369-5.862-5.333C103.066,57.787,104.648,54.428,108.994,54.428z"/>
		<path fill-rule="evenodd" clip-rule="evenodd" fill="#881D1E" d="M121.375,54.428c3.227,0.063,5.729,1.974,5.794,5.333
			c0.067,2.371-1.777,5.597-5.596,5.597c-0.066,0-0.132,0-0.198,0v-1.248c0.066,0,0.132,0,0.198,0c2.303,0,3.687-1.911,3.687-3.952
			v-0.264c0-2.043-1.514-4.216-3.885-4.346V54.428z M121.309,54.428h0.066v1.118c-0.066,0-0.131,0-0.197,0
			c-1.779,0-3.755,1.448-3.755,4.084c0,0.066,0.066,0.197,0.066,0.262c0,2.437,1.845,4.15,3.886,4.216v1.248
			c-3.754-0.068-5.73-2.369-5.861-5.333C115.382,57.787,116.963,54.428,121.309,54.428z"/>
		<path fill-rule="evenodd" clip-rule="evenodd" fill="#881D1E" d="M128.816,55.943c0-0.989-0.264-0.86-0.593-1.385h3.03
			c-0.198,0.264-0.725,0.396-0.725,1.515v7.573c0.855,0.066,1.58,0.199,2.174,0.199c0.988,0,1.91-0.263,2.832-0.922l-0.922,2.041
			h-6.521c0.658-0.46,0.725-0.921,0.725-1.318v-0.395V55.943z"/>
	</g>
	<g>
		<path fill-rule="evenodd" clip-rule="evenodd" fill="#881D1E" d="M31.414,5.495L31.414,5.495
			c-0.197,0.064-0.396,0.132-1.055,0.396c-0.724,0.33-2.105,0.989-2.766,1.054c-0.131,0.064-0.461,0.064-1.514,0.197h-0.133
			l-0.264,0.526l-0.725,2.241l1.055,0.129c0.131,0,1.119,0.066,1.711,0c0.726-0.129,1.516-0.395,2.24-0.592
			c0.791-0.199,1.844-0.527,2.174-0.46c0.46,0.066,0.658,0.327,0.658,0.327l0.395,0.528l0.264,0.331l0.658-0.792
			c0.133-0.133,0.527-0.394,0.857-0.394c0.395,0,1.186,0.195,1.91,0.46c0.789,0.197,1.58,0.395,2.436,0.592
			c0.594,0.066,1.516,0,1.713,0l1.119-0.129L41.16,7.142l-1.712-0.197c-0.593-0.065-2.042-0.725-2.766-1.054
			c-0.593-0.264-0.856-0.332-0.989-0.396c-0.855-0.195-1.58-0.13-2.173,0.132C32.928,5.365,32.27,5.299,31.414,5.495z"/>
		<path fill-rule="evenodd" clip-rule="evenodd" fill="#881D1E" d="M55.057,10.434h-43.4v0.33
			c-0.065,1.054-0.725,26.21-0.527,28.713c0.988,10.079,10.604,16.926,16.926,21.403c2.502,1.844,4.479,3.229,5.072,4.282
			l0.065,0.128h0.594l0.131-0.128c0.527-1.053,2.502-2.438,5.006-4.282c6.389-4.478,15.938-11.325,16.925-21.403
			c0.198-2.503-0.46-27.66-0.46-28.713v-0.33H55.057z"/>
		<path fill-rule="evenodd" clip-rule="evenodd" fill="#F0CF1B" d="M55.057,10.763H11.919c0,0-0.658,26.21-0.46,28.713
			c1.383,13.961,19.955,21.865,21.93,25.487h0.199c2.041-3.622,20.613-11.526,21.93-25.487
			C55.781,36.974,55.057,10.763,55.057,10.763z"/>
		<path fill-rule="evenodd" clip-rule="evenodd" fill="#881D1E" d="M54.266,11.356H12.512v0.2
			c-0.197,8.561-0.525,20.414-0.525,25.484c0,1.251,0.065,2.043,0.065,2.372c0.922,9.615,10.339,16.334,16.53,20.746
			c2.041,1.447,3.82,2.766,4.742,3.82l0.196,0.132l0.132-0.132c0.988-1.054,2.7-2.373,4.742-3.82
			c6.256-4.411,15.608-11.13,16.531-20.746c0.064-0.33,0.064-1.122,0.064-2.372c0-5.07-0.263-16.923-0.527-25.484v-0.2H54.266z"/>
		<path fill-rule="evenodd" clip-rule="evenodd" fill="#FFFFFF" d="M12.71,11.555c-0.199,7.573-0.46,20.15-0.46,25.484
			c0,1.188,0,1.978,0,2.372c0.922,9.482,10.273,16.203,16.464,20.613c2.173,1.514,3.819,2.7,4.807,3.754
			c0.923-1.055,2.636-2.241,4.809-3.754c6.124-4.41,15.476-11.13,16.398-20.613c0-0.395,0.066-1.185,0.066-2.372
			c0-5.333-0.33-17.911-0.527-25.484C52.817,11.555,14.225,11.555,12.71,11.555z"/>
		<linearGradient id="SVGID_2_" gradientUnits="userSpaceOnUse" x1="13.354" y1="37.5021" x2="54.2524" y2="37.5021">
			<stop  offset="0" style="stop-color:#881D1E"/>
			<stop  offset="0" style="stop-color:#881D1E"/>
			<stop  offset="0.54" style="stop-color:#BC2438"/>
			<stop  offset="1" style="stop-color:#881D1E"/>
		</linearGradient>
		<path fill-rule="evenodd" clip-rule="evenodd" fill="url(#SVGID_2_)" d="M53.147,12.345H13.5v0.327
			c-0.197,8.233-0.461,19.561-0.461,24.433l0.066,2.176c0.856,9.217,10.01,15.739,16.069,20.087
			c1.909,1.383,3.161,2.237,4.083,3.096l0.263,0.196l0.198-0.196c0.922-0.859,2.173-1.713,4.084-3.096
			c6.059-4.348,15.212-10.87,16.135-20.087v-2.176c0-4.872-0.199-16.199-0.461-24.433v-0.327H53.147z"/>
		<polygon fill-rule="evenodd" clip-rule="evenodd" fill="#FFFFFF" points="33.061,33.287 33.455,32.498 33.982,33.287 
			34.838,33.088 34.51,33.945 35.233,34.538 34.377,34.804 34.377,35.79 33.588,35.263 32.863,35.79 32.797,34.867 31.875,34.672 
			32.533,34.012 32.139,33.223 		"/>
		<path fill-rule="evenodd" clip-rule="evenodd" fill="#FFFFFF" d="M27.002,42.309c0-0.199,0.131-0.591,0.198-0.922l0.856-2.306
			l-1.316-4.084l-0.922,2.506v3.029l0.922-2.371c0.066,0.261,0.131,0.589,0.197,0.723c-0.197,0.526-0.791,2.106-0.791,2.106
			l-0.064,0.13l-0.066,0.332c-0.066,0.327-0.197,0.594-0.197,0.855c0,0.197,0.064,0.33,0.131,0.525h-0.131v1.119h2.369
			C27.594,43.365,27.002,43.033,27.002,42.309z M25.816,37.504l-1.186,2.894c-0.264,0.99-0.988,2.305-2.832,3.556h4.018v-1.119
			h-1.186c0.592-0.787,0.922-1.514,1.053-2.105l0.133-0.197V37.504z"/>
		<path fill-rule="evenodd" clip-rule="evenodd" fill="#FFFFFF" d="M38.525,43.954h6.916c-0.988-0.986-1.91-1.514-2.568-3.092
			l-4.742-11.393v2.962l3.689,8.89c0.262,0.593,0.592,1.119,0.921,1.514c-0.921,0-1.054,0-1.909,0c0-0.132,0.065-0.262,0.065-0.395
			c0-0.593-0.262-1.185-0.395-1.514l-0.13-0.329v-0.134l-2.24-5.53v3.026l1.186,2.902c0.132,0.394,0.461,0.985,0.461,1.578
			C39.777,42.967,39.515,43.495,38.525,43.954z M38.131,29.469l-2.963-7.115h-3.359v3.03l0.066-0.328l0,0
			c0.132-0.331,0.264-0.923,0.264-1.251c0-0.133,0-0.2-0.066-0.267c0.263,0,0.263,0,0.526,0l-0.79,2.241v3.294l1.318-3.621
			l5.004,12.509v-3.026l-4.61-11.396c0.396,0,0.659,0,0.923,0l3.688,8.893V29.469z M31.809,22.354h-1.777
			c0.525,0.331,0.986,0.789,0.986,1.451c0,0.193-0.065,0.591-0.196,0.855l-1.055,2.832l1.187,3.951l0.856-2.37v-3.294l-0.725,2.043
			c-0.066-0.07-0.131-0.264-0.131-0.331c0.197-0.396,0.593-1.583,0.856-2.108V22.354z"/>
		<path fill-rule="evenodd" clip-rule="evenodd" fill="#F0CF1B" d="M36.023,46.655c0-0.197,0.066-0.591,0.197-0.921l1.516-6.454
			l-1.646-3.754l-0.461,2.039v5.137l0.064-0.459c0,0,0.396-1.582,0.725-3.227c0.066,0.131,0.133,0.264,0.133,0.328l-0.922,4.02
			v4.673h1.383C36.484,47.707,36.023,47.246,36.023,46.655z M35.629,37.566l-1.053,4.415l-0.66,2.965l-5.4-18.309v4.018
			l4.809,16.265c-0.264,0-0.461,0-0.66,0l-4.148-13.106v3.753l3.359,10.472h3.754v-4.673l-0.527,2.106c0-0.065,0-0.065,0-0.065
			v0.065l0,0c-0.131,0.328-0.197,0.79-0.197,1.184c0,0.068,0,0.131,0,0.263c-0.132,0-0.132,0-0.264,0
			c0.132-0.658,0.725-3.228,0.988-4.216V37.566z M28.516,26.636l-1.316-4.612c-0.132-0.394-0.461-0.986-0.461-1.578
			c0-0.53,0.263-1.055,1.186-1.515h-6.85c0.986,0.985,1.91,1.447,2.502,3.093l4.939,15.542v-3.753l-3.82-12.182l-0.065-0.067
			c-0.264-0.659-0.527-1.118-0.856-1.515c0.921,0,1.054,0,1.845,0c0,0.133,0,0.264,0,0.397c0,0.592,0.197,1.118,0.328,1.513
			l0.133,0.331l2.435,8.365V26.636z"/>
		<path fill-rule="evenodd" clip-rule="evenodd" fill="#F0CF1B" d="M40.568,27.885l1.317-5.398c0.197-0.989,0.988-2.305,2.766-3.555
			h-4.082v1.118h1.252c-0.594,0.856-0.924,1.582-1.055,2.174l-0.197,0.854V27.885L40.568,27.885z M40.568,21.102v-1.053
			c0,0.197,0.067,0.33,0.067,0.528C40.635,20.776,40.635,20.905,40.568,21.102z M38.264,18.931c0.592,0.59,1.251,0.919,1.251,1.646
			c0,0.199-0.132,0.594-0.198,0.921l-1.251,5.398l1.712,4.217l0.791-3.228v-4.807l-1.054,4.347
			c-0.066-0.198-0.198-0.529-0.265-0.595c0.265-1.184,1.121-5.066,1.121-5.066l0.13-0.331c0-0.132,0.067-0.198,0.067-0.331v-1.053
			l0,0l0,0v-1.118H38.264z"/>
		<path fill-rule="evenodd" clip-rule="evenodd" fill="#F0CF1B" d="M40.305,32.167c0,0,2.371-9.089,2.568-9.547
			c0.921-1.978,2.568-2.374,2.568-2.374L40.305,32.167z"/>
		<path fill-rule="evenodd" clip-rule="evenodd" fill="#F0CF1B" d="M40.963,32.167c0,0,3.885-8.233,4.215-8.693
			c1.516-1.843,2.963-1.515,2.963-1.515L40.963,32.167z"/>
		<path fill-rule="evenodd" clip-rule="evenodd" fill="#F0CF1B" d="M40.635,33.088c0,0,2.633,6.587,3.16,7.574
			c1.053,2.306,3.03,1.845,3.03,1.845L40.635,33.088z"/>
		<path fill-rule="evenodd" clip-rule="evenodd" fill="#F9EC34" d="M41.16,32.891c0,0,3.952,5.465,4.678,6.321
			c1.645,1.91,3.226,0.858,3.226,0.858L41.16,32.891z"/>
		<path fill-rule="evenodd" clip-rule="evenodd" fill="#F0CF1B" d="M25.947,32.628c0,0-2.635-8.824-2.896-9.286
			c-0.99-1.977-2.701-2.24-2.701-2.24L25.947,32.628z"/>
		<path fill-rule="evenodd" clip-rule="evenodd" fill="#F0CF1B" d="M25.486,32.628c0,0-4.347-7.903-4.676-8.298
			c-1.646-1.843-3.029-1.381-3.029-1.381L25.486,32.628z"/>
		<path fill-rule="evenodd" clip-rule="evenodd" fill="#F0CF1B" d="M26.408,33.812c0,0-2.634,6.455-3.096,7.509
			c-1.053,2.24-3.027,1.779-3.027,1.779L26.408,33.812z"/>
		<path fill-rule="evenodd" clip-rule="evenodd" fill="#F0CF1B" d="M25.881,33.746c-4.082,5.731-3.82,5.535-4.543,6.458
			c-1.58,1.976-3.162,0.988-3.162,0.988L25.881,33.746z"/>
		<path fill-rule="evenodd" clip-rule="evenodd" fill="#881D1E" d="M41.096,52.188L41.096,52.188
			c-3.426,0.329-8.102,0.79-19.035-0.131c-2.238-0.201-5.531,1.119-6.65,1.778l-0.396,0.197c0,0,0.529,1.911,0.727,2.438
			c-0.33,0.064-0.727,0.194-0.727,0.194L9.68,57.719l-0.395,0.067l1.516,5.397c0,0,5.664-1.776,5.795-1.842
			c1.91,0.196,2.898-0.855,3.162-1.119c0.131-0.265,0.197-0.396,0.263-0.462l0,0c0.132-0.13,0.132-0.263,0.132-0.79
			c0-0.266,0-0.791,0-1.45c0.461-0.067,0.987-0.067,1.515-0.067c14.423,1.252,20.021,0.466,22.786,0.067
			c0.791-0.067,1.316-0.131,1.713-0.131c0,0,0.527,0.064,0.922,0.131c0,0.329,0,0.659,0,0.925c0,1.052,0.066,1.251,0.066,1.315
			l0.264,0.462c0.262,0.263,1.25,1.314,3.226,1.119c0.065,0.065,5.729,1.842,5.729,1.842l1.516-5.397l-5.73-1.124
			c0,0-0.395-0.13-0.658-0.194c0.133-0.526,0.658-2.438,0.658-2.438l-0.395-0.197c-1.252-0.724-3.359-1.579-4.742-1.713
			C44.848,51.793,43.268,51.99,41.096,52.188z"/>
		<path fill-rule="evenodd" clip-rule="evenodd" fill="#881D1E" d="M41.096,52.256L41.096,52.256
			c-3.426,0.326-8.102,0.787-19.035-0.134c-2.238-0.266-5.465,1.119-6.584,1.777l-0.395,0.201c0,0,0.592,1.973,0.724,2.37
			c-0.329,0.064-0.792,0.194-0.792,0.194L9.68,57.787H9.418l1.383,5.335c0,0,5.664-1.78,5.795-1.844
			c1.91,0.196,2.898-0.792,3.096-1.121c0.131-0.064,0.197-0.133,0.197-0.264c0.066,0,0.197-0.262,0.197-0.921
			c0-0.33,0-0.855,0-1.518c0.528-0.064,1.054-0.064,1.582,0c14.423,1.252,20.021,0.396,22.786,0.067
			c0.791-0.131,1.316-0.197,1.713-0.197c0,0,0.593,0.129,0.988,0.129c-0.066,0.663-0.066,1.188-0.066,1.518
			c0,0.659,0.197,0.856,0.197,0.921c0.066,0.066,0.133,0.2,0.197,0.264c0.264,0.329,1.186,1.317,3.162,1.121
			c0.065,0.064,5.729,1.844,5.729,1.844l1.449-5.335l-5.664-1.124c0,0-0.461-0.13-0.725-0.194c0.066-0.396,0.66-2.37,0.66-2.37
			l-0.33-0.201c-1.252-0.723-3.424-1.58-4.742-1.777C44.848,51.856,43.268,51.99,41.096,52.256z"/>
		<path fill-rule="evenodd" clip-rule="evenodd" fill="#F0CF1B" d="M52.094,56.931l-0.989-0.269l0.659-2.435l-0.131-0.129
			c-1.252-0.662-3.36-1.517-4.611-1.714c-2.174-0.263-3.754-0.066-5.861,0.132c-3.424,0.329-8.166,0.791-19.164-0.132
			c-2.174-0.197-5.334,1.119-6.389,1.714l-0.197,0.129l0.725,2.435l-1.053,0.269l-5.336,1.116l1.252,4.742l5.531-1.777
			c1.844,0.194,2.768-0.726,2.965-0.989c0.131-0.197,0.264-0.394,0.264-0.394c0.064-0.198,0.064-0.263,0.064-2.37l-0.064-0.068
			c0.592-0.07,1.184-0.131,1.975-0.07c14.357,1.323,19.955,0.464,22.655,0.138c0.856-0.138,1.382-0.199,1.778-0.199
			c0.46,0.061,0.855,0.131,1.252,0.199l0,0c-0.066,2.106,0.064,2.37,0.064,2.37c0,0.066,0.133,0.197,0.197,0.394
			c0.264,0.263,1.121,1.183,2.965,0.989l5.531,1.777l1.318-4.742L52.094,56.931z"/>
		<linearGradient id="SVGID_4_" gradientUnits="userSpaceOnUse" x1="17.0447" y1="58.5702" x2="19.8879" y2="58.3214">
			<stop  offset="0" style="stop-color:#881D1E"/>
			<stop  offset="0" style="stop-color:#881D1E"/>
			<stop  offset="0.54" style="stop-color:#BC2438"/>
			<stop  offset="1" style="stop-color:#881D1E"/>
		</linearGradient>
		<path fill-rule="evenodd" clip-rule="evenodd" fill="url(#SVGID_4_)" d="M16.991,58.51c0.065,0.132,2.436-0.264,2.568,0.923
			c0.065,0.198-0.066-2.172-0.066-2.172C17.387,57.654,16.991,58.51,16.991,58.51z"/>
		<linearGradient id="SVGID_5_" gradientUnits="userSpaceOnUse" x1="19.7866" y1="58.4225" x2="15.2244" y2="59.0636">
			<stop  offset="0" style="stop-color:#881D1E"/>
			<stop  offset="0" style="stop-color:#881D1E"/>
			<stop  offset="0.54" style="stop-color:#BC2438"/>
			<stop  offset="1" style="stop-color:#881D1E"/>
		</linearGradient>
		<path fill-rule="evenodd" clip-rule="evenodd" fill="url(#SVGID_5_)" d="M16.793,58.905l-0.592-1.974l-0.791,0.191
			c0,0,1.055,3.628,1.186,3.628c2.041,0.198,2.898-1.12,2.832-1.187C19.033,58.446,16.793,58.905,16.793,58.905z"/>
		<path fill-rule="evenodd" clip-rule="evenodd" fill="#881D1E" d="M14.884,57.787l0.198-0.067c0.064,0,0.131-0.066,0.131-0.133
			l-0.066-0.262c0-0.063-0.064-0.063-0.133-0.063l-0.262,0.063c-0.066,0-0.131,0.065-0.066,0.129v0.266
			C14.752,57.787,14.818,57.787,14.884,57.787z"/>
		<path fill-rule="evenodd" clip-rule="evenodd" fill="#881D1E" d="M14.357,57.39l-4.15,0.921c-0.066,0-0.131,0.068-0.066,0.135
			v0.196c0.066,0.064,0.066,0.064,0.133,0.064l4.215-0.856L14.357,57.39z"/>
		<path fill-rule="evenodd" clip-rule="evenodd" fill="#881D1E" d="M14.949,58.048c-0.065,0.069-0.131,0.133-0.065,0.198l0.065,0.2
			c0,0.064,0.064,0.129,0.133,0.129l0.262-0.065c0.066,0,0.066-0.064,0.066-0.131l-0.066-0.262c0-0.069-0.064-0.133-0.131-0.133
			L14.949,58.048z"/>
		<path fill-rule="evenodd" clip-rule="evenodd" fill="#881D1E" d="M14.555,58.18l-4.084,1.121c-0.065,0-0.131,0.066-0.131,0.132
			l0.065,0.198c0.065,0.066,0.065,0.066,0.132,0.066l4.148-1.055L14.555,58.18z"/>
		<path fill-rule="evenodd" clip-rule="evenodd" fill="#881D1E" d="M15.147,58.84c-0.064,0-0.133,0.065-0.064,0.131l0.064,0.263
			c0,0.066,0.066,0.066,0.133,0.066l0.264-0.066c0.064-0.066,0.064-0.131,0.064-0.131l-0.064-0.263c0-0.064-0.066-0.134-0.133-0.134
			L15.147,58.84z"/>
		<path fill-rule="evenodd" clip-rule="evenodd" fill="#881D1E" d="M14.752,58.971l-4.083,1.186c-0.065,0-0.065,0.066-0.065,0.13
			l0.065,0.2c0,0.067,0.066,0.133,0.133,0.067l4.083-1.186L14.752,58.971z"/>
		<path fill-rule="evenodd" clip-rule="evenodd" fill="#881D1E" d="M15.871,59.827l-0.065-0.197
			c-0.065-0.067-0.132-0.133-0.198-0.067l-0.197,0.067c-0.066,0-0.131,0.066-0.131,0.13l0.131,0.263
			c0,0.069,0.066,0.069,0.133,0.069l0.263-0.069C15.871,59.959,15.871,59.893,15.871,59.827z"/>
		<path fill-rule="evenodd" clip-rule="evenodd" fill="#881D1E" d="M15.014,59.761l-4.082,1.252
			c-0.065,0.065-0.065,0.065-0.065,0.13l0.065,0.199c0,0.065,0.066,0.132,0.131,0.065l4.084-1.25L15.014,59.761z"/>
		<path fill-rule="evenodd" clip-rule="evenodd" fill="#881D1E" d="M15.871,60.287l-0.197,0.067
			c-0.066,0.065-0.131,0.133-0.131,0.199l0.131,0.198c0,0.063,0.066,0.129,0.132,0.063l0.263-0.063c0.066,0,0.066-0.067,0.066-0.131
			l-0.066-0.266C16.004,60.287,15.938,60.287,15.871,60.287z"/>
		<path fill-rule="evenodd" clip-rule="evenodd" fill="#881D1E" d="M11.262,61.867c-0.066,0-0.133,0.066-0.066,0.13l0.066,0.201
			c0,0.065,0.066,0.131,0.131,0.065l4.018-1.314l-0.131-0.396L11.262,61.867z"/>
		<linearGradient id="SVGID_6_" gradientUnits="userSpaceOnUse" x1="16.0988" y1="55.3831" x2="51.8586" y2="55.3831">
			<stop  offset="0" style="stop-color:#881D1E"/>
			<stop  offset="0" style="stop-color:#881D1E"/>
			<stop  offset="0.54" style="stop-color:#BC2438"/>
			<stop  offset="1" style="stop-color:#881D1E"/>
		</linearGradient>
		<path fill-rule="evenodd" clip-rule="evenodd" fill="url(#SVGID_6_)" d="M50.314,58.246L51.5,54.36
			c-1.186-0.723-3.293-1.514-4.545-1.711c-5.598-0.658-7.178,1.514-24.959,0c-2.041-0.197-5.07,0.988-6.256,1.711l1.119,3.886
			c0,0,1.316-1.645,4.873-1.381c18.902,1.646,22.655-0.264,24.499-0.066C49.721,57.123,50.314,58.246,50.314,58.246z"/>
		<linearGradient id="SVGID_7_" gradientUnits="userSpaceOnUse" x1="47.1981" y1="58.3527" x2="49.8048" y2="58.3527">
			<stop  offset="0" style="stop-color:#881D1E"/>
			<stop  offset="0" style="stop-color:#881D1E"/>
			<stop  offset="0.54" style="stop-color:#BC2438"/>
			<stop  offset="1" style="stop-color:#881D1E"/>
		</linearGradient>
		<path fill-rule="evenodd" clip-rule="evenodd" fill="url(#SVGID_7_)" d="M50.184,58.51c0,0-0.33-0.856-2.504-1.249
			c0,0-0.064,2.37-0.064,2.172C47.812,58.246,50.184,58.642,50.184,58.51z"/>
		<linearGradient id="SVGID_8_" gradientUnits="userSpaceOnUse" x1="47.2328" y1="58.0677" x2="52.0226" y2="59.262">
			<stop  offset="0" style="stop-color:#881D1E"/>
			<stop  offset="0" style="stop-color:#881D1E"/>
			<stop  offset="0.54" style="stop-color:#BC2438"/>
			<stop  offset="1" style="stop-color:#881D1E"/>
		</linearGradient>
		<path fill-rule="evenodd" clip-rule="evenodd" fill="url(#SVGID_8_)" d="M50.973,56.931l-0.592,1.974c0,0-2.24-0.459-2.635,0.659
			c0,0.067,0.791,1.385,2.898,1.187c0.065,0,1.119-3.628,1.119-3.628L50.973,56.931z"/>
		<path fill-rule="evenodd" clip-rule="evenodd" fill="#881D1E" d="M52.094,57.719l0.263,0.067c0.065,0,0.132,0,0.132-0.067
			l0.066-0.266c0-0.064-0.066-0.129-0.133-0.129l-0.264-0.063c-0.064,0-0.131,0-0.131,0.063l-0.067,0.262
			C51.96,57.654,52.027,57.719,52.094,57.719z"/>
		<path fill-rule="evenodd" clip-rule="evenodd" fill="#881D1E" d="M56.967,58.311l-4.149-0.921l-0.066,0.46l4.149,0.856
			c0.066,0,0.132,0,0.132-0.064l0.066-0.196C57.099,58.379,57.032,58.311,56.967,58.311z"/>
		<path fill-rule="evenodd" clip-rule="evenodd" fill="#881D1E" d="M51.896,58.51l0.198,0.065c0.064,0,0.131-0.065,0.197-0.129
			l0.065-0.2c0-0.065-0.065-0.129-0.132-0.198l-0.197-0.064c-0.067,0-0.132,0.064-0.197,0.133l-0.066,0.262
			C51.764,58.446,51.83,58.51,51.896,58.51z"/>
		<path fill-rule="evenodd" clip-rule="evenodd" fill="#881D1E" d="M56.703,59.301l-4.084-1.121l-0.131,0.461l4.148,1.055
			c0.066,0,0.133,0,0.133-0.066l0.065-0.198C56.834,59.367,56.77,59.301,56.703,59.301z"/>
		<path fill-rule="evenodd" clip-rule="evenodd" fill="#881D1E" d="M52.027,58.84l-0.264-0.134c0,0-0.066,0.07-0.131,0.134
			l-0.066,0.263c0,0,0,0.065,0.066,0.131l0.263,0.066c0.065,0,0.132,0,0.132-0.066l0.131-0.263
			C52.158,58.905,52.094,58.84,52.027,58.84z"/>
		<path fill-rule="evenodd" clip-rule="evenodd" fill="#881D1E" d="M56.506,60.157l-4.084-1.186l-0.131,0.396l4.082,1.186
			c0.066,0.066,0.133,0,0.133-0.067l0.064-0.2C56.57,60.223,56.57,60.157,56.506,60.157z"/>
		<path fill-rule="evenodd" clip-rule="evenodd" fill="#881D1E" d="M51.896,59.761c0-0.064,0-0.13-0.065-0.13l-0.264-0.067
			c-0.066-0.066-0.133,0-0.133,0.067l-0.131,0.197c0,0.065,0.066,0.131,0.131,0.197l0.199,0.069c0.065,0,0.131,0,0.197-0.069
			L51.896,59.761z"/>
		<path fill-rule="evenodd" clip-rule="evenodd" fill="#881D1E" d="M56.242,61.013l-4.084-1.252l-0.131,0.396l4.082,1.25
			c0.066,0.066,0.133,0,0.133-0.065l0.065-0.199C56.308,61.078,56.308,61.078,56.242,61.013z"/>
		<path fill-rule="evenodd" clip-rule="evenodd" fill="#881D1E" d="M51.566,60.354l-0.264-0.067c-0.066,0-0.132,0-0.132,0.067
			l-0.132,0.266c0,0.064,0.065,0.131,0.132,0.131l0.198,0.063c0.064,0.066,0.131,0,0.197-0.063l0.066-0.198
			C51.633,60.486,51.633,60.419,51.566,60.354z"/>
		<path fill-rule="evenodd" clip-rule="evenodd" fill="#881D1E" d="M55.912,61.867l-4.017-1.314l-0.132,0.396l4.018,1.314
			c0.065,0.066,0.131,0,0.197-0.065l0.066-0.201C56.044,61.934,55.979,61.867,55.912,61.867z"/>
		<path fill-rule="evenodd" clip-rule="evenodd" fill="#F0CF1B" d="M18.637,54.622c0-0.13-0.064-0.193-0.197-0.193l0.527-0.133
			c-0.066,0.064-0.131,0.133-0.066,0.262l0.264,1.188c0,0.063,0.133,0.13,0.197,0.13l-0.526,0.131c0.065,0,0.131-0.131,0.065-0.198
			L18.637,54.622z"/>
		<path fill-rule="evenodd" clip-rule="evenodd" fill="#F0CF1B" d="M19.56,54.491c-0.066-0.263-0.132-0.263-0.198-0.33h0.33
			l1.185,1.188l-0.13-0.99c0-0.198-0.066-0.26-0.199-0.26l0.527-0.068c-0.066,0.068-0.133,0.068-0.133,0.264l0.133,1.45
			c-0.066,0-0.198-0.069-0.264-0.132l-1.119-1.123l0.131,1.055c0,0.13,0.066,0.199,0.133,0.263h-0.461
			c0.066-0.063,0.131-0.063,0.131-0.195L19.56,54.491z"/>
		<path fill-rule="evenodd" clip-rule="evenodd" fill="#F0CF1B" d="M21.865,54.296h-0.198c-0.197,0-0.264,0-0.396,0.064l0.132-0.328
			c0,0.068,0.066,0.068,0.132,0.068l0.987,0.063c0.067,0,0.067,0,0.132,0l-0.132,0.267c0,0-0.132-0.069-0.196-0.069h-0.266
			l-0.064,1.254c0,0.132,0.064,0.132,0.13,0.195l-0.525-0.063c0.065,0,0.131-0.069,0.131-0.132L21.865,54.296z"/>
		<path fill-rule="evenodd" clip-rule="evenodd" fill="#F0CF1B" d="M22.918,54.491c0-0.063,0-0.196-0.066-0.263l0.791,0.067
			c0.066,0,0.066,0,0.132-0.067v0.33c-0.065-0.066-0.198-0.129-0.396-0.129c-0.066,0-0.131,0-0.197,0v0.46h0.197
			c0.066,0,0.133,0,0.197,0v0.263c-0.065-0.069-0.131-0.069-0.264-0.069h-0.197v0.594c0.133,0,0.197,0.069,0.33,0.069
			c0.131,0,0.329-0.069,0.461-0.132l-0.132,0.329l-1.054-0.066c0.131-0.067,0.131-0.13,0.131-0.262L22.918,54.491z"/>
		<path fill-rule="evenodd" clip-rule="evenodd" fill="#F0CF1B" d="M24.301,55.746c0,0.13-0.066,0.197-0.131,0.197h0.526
			c-0.131,0-0.131-0.066-0.131-0.197l0.066-1.254c0.065,0,0.131,0,0.197,0c0.197,0,0.264,0.13,0.264,0.264v0.066
			c0,0.132-0.133,0.197-0.461,0.33l0.461,0.658c0.131,0.198,0.197,0.198,0.329,0.198h0.263c-0.329-0.131-0.526-0.527-0.725-0.856
			c0.198,0,0.396-0.132,0.396-0.396c0.066-0.327-0.197-0.46-0.526-0.46h-0.593c0.066,0,0.132,0,0.132,0.262L24.301,55.746z"/>
		<path fill-rule="evenodd" clip-rule="evenodd" fill="#F0CF1B" d="M25.881,54.688c0-0.26-0.131-0.26-0.131-0.329l0.33,0.069
			l0.921,1.317l0.066-0.99c0-0.198,0-0.264-0.132-0.327l0.527,0.063c-0.133,0.066-0.199,0-0.199,0.197l-0.065,1.518
			c-0.132,0-0.264-0.133-0.264-0.198l-0.922-1.252l-0.066,1.054c0,0.133,0.066,0.198,0.133,0.263l-0.461-0.065
			c0.065-0.065,0.131-0.065,0.197-0.198L25.881,54.688z"/>
		<path fill-rule="evenodd" clip-rule="evenodd" fill="#F0CF1B" d="M28.254,54.491l0.262,0.066l0.461,1.385
			c0.066,0.13,0.133,0.197,0.198,0.263h-0.527c0.066-0.066,0.132-0.066,0.132-0.133c0-0.065-0.065-0.065-0.065-0.13l-0.132-0.396
			h-0.328V55.35h0.262l-0.197-0.594l-0.064,0.066V54.491z M28.121,54.688c0.064,0,0.064-0.066,0.064-0.066
			c0-0.064-0.064-0.064-0.064-0.13h0.133v0.331l-0.199,0.528h0.199v0.197h-0.265l-0.198,0.396v0.065c0,0.065,0,0.065,0.066,0.132
			h-0.461c0.132-0.132,0.197-0.197,0.197-0.263L28.121,54.688z"/>
		<path fill-rule="evenodd" clip-rule="evenodd" fill="#F0CF1B" d="M29.636,54.756h-0.198c-0.197,0-0.263,0-0.394,0.066l0.132-0.264
			c0,0,0.065,0,0.13,0l0.99,0.064c0.065,0,0.065,0,0.131,0l-0.131,0.267c0-0.066-0.132-0.066-0.199-0.066l-0.262-0.066l-0.067,1.317
			c0,0.133,0.067,0.133,0.132,0.2l-0.525-0.066c0.131,0,0.131-0.066,0.131-0.133L29.636,54.756z"/>
		<path fill-rule="evenodd" clip-rule="evenodd" fill="#F0CF1B" d="M30.623,54.888c0-0.133,0-0.2-0.066-0.267l0.461,0.066
			c-0.065,0-0.131,0.067-0.131,0.2l-0.065,1.184c0,0.133,0.065,0.2,0.132,0.264l-0.527-0.064c0.066,0,0.131-0.066,0.131-0.2
			L30.623,54.888z"/>
		<path fill-rule="evenodd" clip-rule="evenodd" fill="#F0CF1B" d="M32.072,54.688c0.526,0.067,0.855,0.395,0.855,0.926
			c0,0.329-0.329,0.855-0.921,0.789v-0.197c0.396,0.066,0.592-0.263,0.657-0.592l0,0c0-0.331-0.262-0.726-0.657-0.726l0,0v-0.2
			H32.072z M32.007,56.403L32.007,56.403c-0.593,0-0.923-0.395-0.923-0.856c0-0.33,0.264-0.858,0.923-0.858v0.2
			c-0.263,0-0.593,0.194-0.593,0.592v0.066c0,0.396,0.264,0.659,0.593,0.659l0,0V56.403z"/>
		<path fill-rule="evenodd" clip-rule="evenodd" fill="#F0CF1B" d="M33.191,56.206c0,0.13-0.065,0.197-0.197,0.197l0.461,0.066
			c-0.066-0.066-0.131-0.133-0.066-0.263v-1.054l0.923,1.251c0.065,0.066,0.198,0.13,0.265,0.13l0.064-1.45
			c0-0.194,0.066-0.194,0.132-0.261h-0.461c0.065,0,0.132,0.132,0.132,0.261l-0.067,1.057l-0.921-1.317l-0.395-0.066
			c0.066,0.066,0.197,0.066,0.197,0.327L33.191,56.206z"/>
		<path fill-rule="evenodd" clip-rule="evenodd" fill="#F0CF1B" d="M35.629,54.822h0.131l0.593,1.384
			c0.066,0.13,0.132,0.197,0.198,0.263h-0.527c0.066,0,0.133-0.066,0.133-0.133l-0.066-0.064l-0.133-0.396h-0.328v-0.199h0.197
			l-0.197-0.594V54.822z M35.431,55.019c0-0.066,0-0.066,0-0.066c0-0.065,0-0.065-0.065-0.132h0.264v0.261l0,0l-0.264,0.594h0.264
			v0.199H35.3l-0.132,0.396c0,0.064,0,0.064,0,0.064c0,0.066,0.065,0.133,0.065,0.133h-0.461c0.132-0.066,0.198-0.197,0.198-0.263
			L35.431,55.019z"/>
		<path fill-rule="evenodd" clip-rule="evenodd" fill="#F0CF1B" d="M36.683,55.019c0-0.131-0.065-0.131-0.065-0.197h0.461
			c-0.066,0-0.133,0-0.133,0.197l0.066,1.186c0.131,0,0.264,0.066,0.33,0.066c0.197-0.066,0.328-0.066,0.461-0.2l-0.133,0.33
			l-1.052,0.066c0.131-0.066,0.131-0.133,0.131-0.197v-0.066L36.683,55.019z"/>
		<path fill-rule="evenodd" clip-rule="evenodd" fill="#F0CF1B" d="M38.986,55.152c0,0.132,0.199,0.262,0.33,0.329l0.264,0.134
			c0.197,0.063,0.33,0.132,0.33,0.262c0,0,0,0,0,0.066c-0.066,0.13-0.2,0.197-0.396,0.197c-0.132,0.066-0.329,0-0.528-0.132
			l0.133,0.329c0.131,0,0.264,0,0.396,0c0.396,0,0.724-0.264,0.657-0.59c0-0.199-0.196-0.266-0.328-0.332l-0.329-0.13
			c-0.132-0.066-0.265-0.132-0.265-0.264v-0.066c0.066-0.132,0.133-0.132,0.265-0.198c0.13,0,0.329,0.066,0.461,0.133l-0.065-0.267
			c-0.066,0-0.266-0.064-0.33,0h-0.065C39.186,54.622,38.922,54.756,38.986,55.152z"/>
		<path fill-rule="evenodd" clip-rule="evenodd" fill="#F0CF1B" d="M41.029,54.491c0.131,0,0.264,0,0.461,0v0.264
			c-0.197-0.067-0.395-0.067-0.461-0.067c-0.394,0.067-0.528,0.331-0.528,0.662c0.067,0.327,0.33,0.658,0.725,0.593c0,0,0,0,0.066,0
			c0.131,0,0.263-0.066,0.461-0.197l-0.133,0.327c-0.065,0.067-0.264,0.067-0.395,0.133c-0.461,0-0.922-0.198-0.988-0.726
			C40.172,55.019,40.305,54.558,41.029,54.491z"/>
		<path fill-rule="evenodd" clip-rule="evenodd" fill="#F0CF1B" d="M41.951,55.809c0,0.133,0,0.263-0.131,0.263l0.525-0.065
			c-0.065,0-0.131-0.065-0.131-0.198l-0.066-0.526l0.855-0.132l0.066,0.594c0.066,0.063,0,0.197-0.066,0.197h0.462
			c-0.065-0.066-0.132-0.133-0.132-0.266l-0.131-1.119c0-0.198,0.064-0.198,0.131-0.262l-0.526,0.064c0.13,0,0.13,0.132,0.196,0.198
			v0.396l-0.922,0.129v-0.395c0-0.13,0-0.197,0.066-0.26l-0.461,0.063c0.133,0.066,0.133,0.13,0.133,0.264L41.951,55.809z"/>
		<path fill-rule="evenodd" clip-rule="evenodd" fill="#F0CF1B" d="M44.453,54.162c0.461,0,0.857,0.267,0.922,0.727
			c0,0.395-0.197,0.921-0.856,0.988h-0.066v-0.199h0.066c0.395,0,0.593-0.327,0.527-0.658v-0.066c0-0.332-0.264-0.594-0.594-0.594
			V54.162z M44.322,54.162c0.065,0,0.065,0,0.131,0v0.198c-0.065,0-0.065,0-0.131,0c-0.264,0-0.528,0.262-0.528,0.66v0.063
			c0.067,0.331,0.331,0.594,0.659,0.594v0.199c-0.526,0-0.855-0.33-0.922-0.725C43.466,54.756,43.662,54.228,44.322,54.162z"/>
		<path fill-rule="evenodd" clip-rule="evenodd" fill="#F0CF1B" d="M46.561,54.162c0.527,0.066,0.858,0.396,0.791,0.921
			c0,0.397-0.33,0.793-0.855,0.793v-0.199c0.263,0,0.525-0.263,0.592-0.525v-0.069c0.066-0.327-0.133-0.723-0.527-0.787
			c-0.064,0-0.064,0-0.064,0v-0.134H46.561z M46.496,55.876c-0.066,0-0.066,0-0.133,0c-0.594-0.13-0.856-0.526-0.856-0.988
			c0.065-0.331,0.33-0.789,0.988-0.727v0.134c-0.265,0-0.594,0.196-0.658,0.593l0,0c-0.068,0.395,0.197,0.726,0.525,0.789
			c0.066,0,0.066,0,0.133,0V55.876z"/>
		<path fill-rule="evenodd" clip-rule="evenodd" fill="#F0CF1B" d="M47.812,54.622c0.067-0.13,0-0.13,0-0.262l0.461,0.132
			c-0.066,0.066-0.132,0.066-0.196,0.197l-0.33,1.188c0.133,0.066,0.264,0.066,0.33,0.131c0.131,0,0.328,0,0.461-0.065l-0.197,0.33
			l-1.055-0.33c0.133,0,0.197-0.066,0.197-0.133v-0.063L47.812,54.622z"/>
		<path fill-rule="evenodd" clip-rule="evenodd" fill="#881D1E" d="M6.388,32.628c-0.065,0.066-0.065,0.066-0.132,0.066
			c0,0,0,0,0-0.066C6.256,32.628,6.322,32.628,6.388,32.628z"/>
		<path fill-rule="evenodd" clip-rule="evenodd" fill="#881D1E" d="M6.914,13.53c-0.395,0-0.724,0.066-1.053,0.197v15.608l0,0l0,0
			v19.099c0.264,0.396,0.79,0.659,1.186,0.791c0,0.065,0,0.065,0,0.659l0.724,0.132c0.329,0.063,0.726,0.13,1.187,0.13
			c1.053,0,1.909-0.461,2.305-1.119c0,0,0.131-0.529,0.197-1.646c0-0.134-0.066-0.857-0.461-4.741c0,0-0.264-2.242-0.33-3.492
			c0.198,0.133,0.461,0.329,0.725,0.395c0.133,0.066,0.659,0.396,1.055,0.724l1.844,1.381c0,0-0.791-2.5-0.988-2.897
			c0.461-0.195,3.162-1.447,3.162-1.447l-2.898-0.199c-0.856-0.065-1.777-0.328-1.976-0.589c0-0.068,0-0.265,0-0.265v-0.198l0,0
			l0.065-0.33l0,0c0-0.13,0-0.265-0.065-0.33c0.065-0.196,0.198-0.33,0.263-0.526c0.133-0.395,0.198-0.726,0.198-1.122
			c0-1.579-1.054-3.226-1.515-3.421c0,0-0.066,0-0.066-0.069c0-0.064,0-0.196,0-0.261c0-1.056-0.131-1.251-0.264-1.318
			c0,0-0.066-0.066-0.131-0.133c0-1.514,0.329-11.854,0.329-12.316v-0.066l-0.461-0.854c-0.265-0.46-0.725-0.725-1.186-0.856
			c0-0.064,0-0.199,0-0.394V13.79l-0.526-0.063l-0.197-0.065C7.771,13.596,7.311,13.53,6.914,13.53z M5.861,13.727
			c-0.593,0.132-1.055,0.461-1.252,0.921c-0.133,0.266-0.264,0.726-0.197,1.647l0,0c0,0.133,0.065,0.792,0.461,4.48v0.065
			c0.395,3.03,0.988,8.034,0.988,8.495c-0.067,0.066-0.067,0.066-0.067,0.066s0,0,0.067,0l0,0c-0.133,0.131-0.197,0.261-0.197,0.594
			c0,0,0,0.065,0,0.128H5.598c-0.394,0.267-1.316,1.846-1.383,3.295v0.065c0,0.462,0.131,0.857,0.262,1.254l0.068,0.067
			c0,0,0.065,0.193,0.131,0.328c0,0.066,0.066,0.724,0.066,0.724h0.064c0,0.064,0,0.197,0,0.395c0,0,0,0,0,0.066v0.065
			c-0.197,0.263-1.053,0.591-1.91,0.657L0,37.37c0,0,2.766,1.119,3.162,1.252c-0.133,0.46-0.791,2.965-0.791,2.965l1.711-1.45
			c0.462-0.33,0.924-0.66,1.055-0.726c0.197-0.131,0.461-0.264,0.658-0.395c-0.066,1.314-0.197,8.757-0.197,8.757
			c0,0.2,0.131,0.464,0.264,0.66V29.335v0.066l0,0v-0.066V13.727z"/>
		<path fill-rule="evenodd" clip-rule="evenodd" fill="#F0CF1B" d="M15.147,37.566L13.5,37.435c-0.724,0-1.909-0.331-2.238-0.723
			c0-0.066,0-0.264,0-0.461c0-0.133,0-0.264,0.066-0.331c0-0.064,0-0.13,0-0.197c0-0.13-0.066-0.265-0.066-0.265l-0.066-0.065
			c0.133-0.13,0.264-0.33,0.396-0.657c0.659-1.715-0.856-3.954-1.186-4.15l-0.265-0.067c0.066-0.725,0-1.447-0.131-1.581
			l-0.264-0.262c0-0.792,0.33-12.449,0.33-12.449l-0.461-0.79c-0.264-0.461-0.856-0.657-1.186-0.721c0-0.069,0-0.069,0-0.069
			c0-0.066,0-0.591,0-0.591l-0.264-0.066H7.969c-0.264-0.065-0.658-0.133-1.055-0.133c-0.987,0-1.777,0.329-2.041,0.989
			c-0.197,0.46-0.131,1.448-0.131,1.448c0,0.133,0.064,1.054,0.461,4.48c0.394,3.222,0.987,8.163,0.987,8.559
			c0,0.066,0,0.066,0,0.066l-0.065,0.131c-0.131,0.129-0.131,0.129-0.131,0.723l-0.2,0.134c-0.329,0.197-1.185,1.579-1.25,3.028
			c0,0.395,0.065,0.788,0.198,1.185c0.064,0.134,0.196,0.331,0.196,0.395l0.132,0.726c0.066,0.133,0.066,0.395,0.066,0.594
			c0,0.065,0,0.198,0,0.198c-0.264,0.458-1.449,0.788-2.24,0.854l-1.58,0.196c0,0,1.91,0.724,2.239,0.857
			c-0.132,0.396-0.593,2.239-0.593,2.239l0.922-0.792c0.33-0.261,0.922-0.658,1.121-0.788c0.526-0.197,0.855-0.526,1.119-0.792
			c-0.066,2.174-0.264,9.023-0.264,9.023s0,0.198,0,0.265c0,0.92,0.986,1.316,1.58,1.382c0,0.066-0.066,0.659-0.066,0.659
			l0.462,0.065c0.263,0.066,0.724,0.132,1.12,0.132c0.922,0,1.711-0.329,1.975-0.923c0.197-0.46,0.197-1.514,0.197-1.514
			c0-0.067-0.131-1.119-0.461-4.677c-0.131-1.315-0.263-2.896-0.461-4.347c0.264,0.332,0.725,0.661,1.318,0.924
			c0.196,0.064,0.789,0.46,1.119,0.724l0.988,0.725c0,0-0.594-1.78-0.725-2.174C13.237,38.423,15.147,37.566,15.147,37.566z"/>
		<linearGradient id="SVGID_9_" gradientUnits="userSpaceOnUse" x1="5.1221" y1="23.1724" x2="9.1966" y2="23.1724">
			<stop  offset="0" style="stop-color:#881D1E"/>
			<stop  offset="0" style="stop-color:#881D1E"/>
			<stop  offset="0.54" style="stop-color:#BC2438"/>
			<stop  offset="1" style="stop-color:#881D1E"/>
		</linearGradient>
		<path fill-rule="evenodd" clip-rule="evenodd" fill="url(#SVGID_9_)" d="M6.585,17.614c-0.46-0.134-0.921-0.463-1.185-0.792
			c0.065,0.792,0.197,2.306,0.394,3.884c0.791,6.456,0.989,8.168,0.989,8.629c0.131,0.134,0.922,0.265,1.58,0.134
			c0.396-0.134,0.659-0.332,0.791-0.66c0-0.199,0.197-7.639,0.264-11.987C8.957,17.283,8.035,17.944,6.585,17.614z"/>
		<linearGradient id="SVGID_10_" gradientUnits="userSpaceOnUse" x1="5.1219" y1="15.6784" x2="7.7621" y2="15.6784">
			<stop  offset="0" style="stop-color:#881D1E"/>
			<stop  offset="0" style="stop-color:#881D1E"/>
			<stop  offset="0.54" style="stop-color:#BC2438"/>
			<stop  offset="1" style="stop-color:#881D1E"/>
		</linearGradient>
		<path fill-rule="evenodd" clip-rule="evenodd" fill="url(#SVGID_10_)" d="M6.914,14.451c-1.053,0.065-1.382,0.462-1.514,0.659
			c-0.066,0.197-0.066,0.394,0,0.526c0.855,1.252,1.844,1.317,2.238,1.252c0-0.266,0.132-2.041,0.198-2.306
			C7.574,14.517,7.244,14.451,6.914,14.451L6.914,14.451z M7.969,14.517v0.066V14.517z"/>
		<linearGradient id="SVGID_11_" gradientUnits="userSpaceOnUse" x1="8.7806" y1="15.9992" x2="9.6597" y2="15.9992">
			<stop  offset="0" style="stop-color:#881D1E"/>
			<stop  offset="0" style="stop-color:#881D1E"/>
			<stop  offset="0.54" style="stop-color:#BC2438"/>
			<stop  offset="1" style="stop-color:#881D1E"/>
		</linearGradient>
		<path fill-rule="evenodd" clip-rule="evenodd" fill="url(#SVGID_11_)" d="M8.363,16.691c0.461-0.197,0.856-0.462,0.856-0.591l0,0
			c0-0.529-0.461-0.725-0.724-0.791C8.43,15.637,8.43,16.296,8.363,16.691z"/>
		<linearGradient id="SVGID_12_" gradientUnits="userSpaceOnUse" x1="6.0367" y1="39.9062" x2="10.0924" y2="39.9062">
			<stop  offset="0" style="stop-color:#881D1E"/>
			<stop  offset="0" style="stop-color:#881D1E"/>
			<stop  offset="0.54" style="stop-color:#BC2438"/>
			<stop  offset="1" style="stop-color:#881D1E"/>
		</linearGradient>
		<path fill-rule="evenodd" clip-rule="evenodd" fill="url(#SVGID_12_)" d="M6.981,32.959c-0.133,1.449-0.395,9.813-0.593,13.828
			c0.526-0.526,1.449-1.052,2.897-0.723c0.395,0.13,0.855,0.526,1.186,0.79c-0.065-0.79-0.264-2.44-0.394-4.082
			c-0.658-6.719-0.856-9.09-0.922-9.813C8.824,33.088,8.1,33.287,6.981,32.959z"/>
		<linearGradient id="SVGID_13_" gradientUnits="userSpaceOnUse" x1="7.8664" y1="47.9976" x2="10.5066" y2="47.9976">
			<stop  offset="0" style="stop-color:#881D1E"/>
			<stop  offset="0" style="stop-color:#881D1E"/>
			<stop  offset="0.54" style="stop-color:#BC2438"/>
			<stop  offset="1" style="stop-color:#881D1E"/>
		</linearGradient>
		<path fill-rule="evenodd" clip-rule="evenodd" fill="url(#SVGID_13_)" d="M8.166,46.787c0,0.266-0.131,2.043-0.131,2.371
			c0.197,0,0.525,0.067,0.855,0.067c1.054,0,1.449-0.461,1.515-0.657c0.132-0.2,0.132-0.397,0-0.53
			C9.615,46.787,8.561,46.723,8.166,46.787L8.166,46.787z M7.837,49.158L7.837,49.158L7.837,49.158z"/>
		<linearGradient id="SVGID_14_" gradientUnits="userSpaceOnUse" x1="6.9511" y1="47.6762" x2="7.8278" y2="47.6762">
			<stop  offset="0" style="stop-color:#881D1E"/>
			<stop  offset="0" style="stop-color:#881D1E"/>
			<stop  offset="0.54" style="stop-color:#BC2438"/>
			<stop  offset="1" style="stop-color:#881D1E"/>
		</linearGradient>
		<path fill-rule="evenodd" clip-rule="evenodd" fill="url(#SVGID_14_)" d="M6.585,47.578L6.585,47.578
			c0,0.526,0.462,0.726,0.725,0.79c0.064-0.263,0.131-0.987,0.131-1.382C6.981,47.182,6.651,47.446,6.585,47.578z"/>
		<linearGradient id="SVGID_15_" gradientUnits="userSpaceOnUse" x1="6.0367" y1="30.9139" x2="9.4249" y2="30.9139">
			<stop  offset="0" style="stop-color:#881D1E"/>
			<stop  offset="0" style="stop-color:#881D1E"/>
			<stop  offset="0.54" style="stop-color:#BC2438"/>
			<stop  offset="1" style="stop-color:#881D1E"/>
		</linearGradient>
		<path fill-rule="evenodd" clip-rule="evenodd" fill="url(#SVGID_15_)" d="M9.746,29.27c-1.12,1.711-3.292,0.592-3.358,0.525
			l0.132,2.306c0,0,2.107,1.186,3.227-0.261V29.27z"/>
		<linearGradient id="SVGID_16_" gradientUnits="userSpaceOnUse" x1="4.2064" y1="33.4846" x2="6.1588" y2="33.4846">
			<stop  offset="0" style="stop-color:#881D1E"/>
			<stop  offset="0" style="stop-color:#881D1E"/>
			<stop  offset="0.54" style="stop-color:#BC2438"/>
			<stop  offset="1" style="stop-color:#881D1E"/>
		</linearGradient>
		<path fill-rule="evenodd" clip-rule="evenodd" fill="url(#SVGID_16_)" d="M5.927,30.783c-0.132,0.066-1.45,2.175-0.79,3.624
			c0.527,1.25,0.988,0.657,1.119,1.777c0,0.066,0.198-2.832,0.198-2.832s-0.527-0.2-0.527-1.384
			C5.927,31.641,5.927,30.783,5.927,30.783z"/>
		<linearGradient id="SVGID_17_" gradientUnits="userSpaceOnUse" x1="3.2921" y1="37.5765" x2="6.7337" y2="37.5765">
			<stop  offset="0" style="stop-color:#881D1E"/>
			<stop  offset="0" style="stop-color:#881D1E"/>
			<stop  offset="0.54" style="stop-color:#BC2438"/>
			<stop  offset="1" style="stop-color:#881D1E"/>
		</linearGradient>
		<path fill-rule="evenodd" clip-rule="evenodd" fill="url(#SVGID_17_)" d="M6.256,36.776c0,0.132,0.132,1.254-1.449,1.975
			c-0.33,0.134-1.119,0.858-1.119,0.858l0.329-1.382l-1.054-0.462c0,0,2.043-0.199,2.503-1.053c0.132-0.196,0.066-0.922,0-1.119
			C5.334,35.33,6.19,36.185,6.256,36.776z"/>
		<linearGradient id="SVGID_18_" gradientUnits="userSpaceOnUse" x1="9.6955" y1="33.7138" x2="11.6589" y2="33.7138">
			<stop  offset="0" style="stop-color:#881D1E"/>
			<stop  offset="0" style="stop-color:#881D1E"/>
			<stop  offset="0.54" style="stop-color:#BC2438"/>
			<stop  offset="1" style="stop-color:#881D1E"/>
		</linearGradient>
		<path fill-rule="evenodd" clip-rule="evenodd" fill="url(#SVGID_18_)" d="M10.207,30.98c0.198,0.068,1.582,2.108,0.988,3.623
			c-0.461,1.253-0.988,0.66-1.055,1.844l-0.328-3.359c0,0,0.527-0.329,0.527-1.248C10.34,31.573,10.207,30.98,10.207,30.98z"/>
		<linearGradient id="SVGID_19_" gradientUnits="userSpaceOnUse" x1="9.6948" y1="37.685" x2="13.125" y2="37.685">
			<stop  offset="0" style="stop-color:#881D1E"/>
			<stop  offset="0" style="stop-color:#881D1E"/>
			<stop  offset="0.54" style="stop-color:#BC2438"/>
			<stop  offset="1" style="stop-color:#881D1E"/>
		</linearGradient>
		<path fill-rule="evenodd" clip-rule="evenodd" fill="url(#SVGID_19_)" d="M10.207,36.974c0,0.13-0.131,1.253,1.449,1.911
			c0.33,0.132,1.252,0.791,1.252,0.791l-0.461-1.319L13.5,37.83c0,0-2.041-0.129-2.568-0.921c-0.131-0.197-0.131-0.922,0-1.185
			C11.063,35.527,10.207,36.382,10.207,36.974z"/>
		<path fill-rule="evenodd" clip-rule="evenodd" fill="#881D1E" d="M60.787,32.628c-0.066,0.066-0.066,0.066-0.066,0.066
			s-0.066,0-0.066-0.066C60.721,32.628,60.721,32.628,60.787,32.628z"/>
		<path fill-rule="evenodd" clip-rule="evenodd" fill="#881D1E" d="M61.115,48.434c0.131-0.196,0.264-0.46,0.264-0.66
			c0,0-0.133-7.443-0.133-8.757c0.199,0.131,0.396,0.264,0.594,0.395c0.132,0.065,0.594,0.396,1.055,0.726l1.777,1.45
			c0,0-0.725-2.505-0.855-2.965c0.46-0.133,3.16-1.252,3.16-1.252l-2.898-0.331c-0.789-0.065-1.711-0.394-1.909-0.657v-0.065
			c0-0.066,0-0.066,0-0.066c0-0.198,0-0.331,0.065-0.395l0,0c0,0,0.066-0.658,0.133-0.724c0-0.134,0.131-0.328,0.131-0.328v-0.067
			c0.197-0.397,0.264-0.792,0.264-1.254v-0.065c-0.066-1.449-0.922-3.028-1.383-3.295h-0.066c0-0.063,0-0.128,0-0.128
			c0-0.333-0.066-0.462-0.131-0.594l0,0l0,0c0,0,0,0,0-0.066c0-0.461,0.592-5.465,0.922-8.495v-0.065
			c0.394-3.688,0.527-4.347,0.527-4.48l0,0c0-0.922-0.133-1.382-0.197-1.647c-0.264-0.46-0.727-0.79-1.318-0.986v15.673l0.066,0.066
			l0,0l-0.066-0.066V48.434z M59.008,13.662l-0.264,0.065l-0.526,0.063v0.267c0,0.195,0,0.33,0,0.394
			c-0.396,0.131-0.857,0.396-1.186,0.856l-0.462,0.854l0.066,0.066c0,0.462,0.264,10.802,0.33,12.316
			c-0.066,0.066-0.197,0.133-0.197,0.133c-0.066,0.066-0.264,0.262-0.264,1.318c0,0.065,0,0.197,0,0.261
			c0,0.069-0.066,0.069-0.066,0.069c-0.395,0.195-1.514,1.842-1.514,3.421c0,0.396,0.064,0.727,0.197,1.122
			c0.066,0.197,0.197,0.331,0.264,0.526c0,0.065-0.066,0.199-0.066,0.33l0,0l0.066,0.33l0,0v0.198c0,0,0,0.197,0,0.265
			c-0.198,0.261-1.121,0.524-1.91,0.589l-2.898,0.199c0,0,2.699,1.252,3.096,1.447c-0.133,0.397-0.988,2.897-0.988,2.897
			l1.844-1.381c0.461-0.328,0.922-0.658,1.055-0.724c0.263-0.066,0.525-0.262,0.789-0.395c-0.131,1.25-0.394,3.492-0.394,3.492
			c-0.329,3.883-0.395,4.606-0.395,4.741c0,1.118,0.197,1.646,0.197,1.646c0.328,0.658,1.186,1.119,2.304,1.119
			c0.395,0,0.856-0.068,1.12-0.13l0.791-0.132c-0.066-0.594-0.066-0.594-0.066-0.659c0.461-0.132,0.922-0.395,1.186-0.791V29.335
			l0,0l0,0V13.662c-0.264-0.065-0.658-0.132-0.989-0.132l0,0C59.666,13.53,59.272,13.596,59.008,13.662z"/>
		<path fill-rule="evenodd" clip-rule="evenodd" fill="#F0CF1B" d="M54.068,38.555c-0.131,0.394-0.725,2.174-0.725,2.174
			l0.988-0.725c0.396-0.263,0.922-0.659,1.119-0.724c0.658-0.264,1.055-0.592,1.318-0.924c-0.133,1.451-0.33,3.031-0.462,4.347
			c-0.329,3.558-0.396,4.61-0.396,4.677c0,0-0.065,1.054,0.132,1.514c0.263,0.595,1.054,0.923,2.041,0.923
			c0.395,0,0.791-0.066,1.054-0.132l0.462-0.065c0,0,0-0.593,0-0.659c0.525-0.066,1.514-0.462,1.514-1.382c0-0.066,0-0.265,0-0.265
			s-0.133-6.85-0.264-9.023c0.264,0.266,0.659,0.595,1.12,0.792c0.198,0.13,0.79,0.527,1.12,0.788l0.986,0.792
			c0,0-0.525-1.843-0.659-2.239c0.331-0.133,2.241-0.857,2.241-0.857l-1.582-0.196c-0.789-0.066-1.975-0.396-2.172-0.854
			c-0.066,0-0.066-0.133-0.066-0.198c0-0.199,0-0.461,0.066-0.594l0.131-0.726c0.066-0.064,0.132-0.261,0.197-0.395
			c0.133-0.397,0.199-0.791,0.199-1.185c-0.066-1.449-0.923-2.831-1.188-3.028l-0.264-0.134c0-0.594,0-0.594-0.064-0.723
			l-0.066-0.131c0,0,0,0,0-0.066c0-0.396,0.527-5.337,0.922-8.559c0.396-3.426,0.527-4.347,0.527-4.48c0,0,0-0.988-0.197-1.448
			c-0.264-0.66-1.054-0.989-1.977-0.989c-0.394,0-0.855,0.067-1.119,0.133h-0.197l-0.264,0.066c0,0,0,0.526,0.066,0.591
			c0,0,0,0,0,0.069c-0.396,0.064-0.988,0.26-1.252,0.721l-0.461,0.79c0,0,0.328,11.657,0.394,12.449l-0.328,0.262
			c-0.133,0.134-0.133,0.856-0.133,1.581l-0.264,0.067c-0.328,0.197-1.777,2.435-1.119,4.15c0.066,0.327,0.198,0.526,0.33,0.657
			v0.065c-0.066,0-0.132,0.134-0.132,0.265c0,0.066,0,0.133,0.065,0.197c0,0.066,0,0.198,0,0.331c0,0.197,0,0.395,0,0.461
			c-0.264,0.393-1.514,0.723-2.238,0.723l-1.581,0.131C51.896,37.566,53.738,38.423,54.068,38.555z"/>
		<linearGradient id="SVGID_20_" gradientUnits="userSpaceOnUse" x1="57.2595" y1="23.1724" x2="61.3338" y2="23.1724">
			<stop  offset="0" style="stop-color:#881D1E"/>
			<stop  offset="0" style="stop-color:#881D1E"/>
			<stop  offset="0.54" style="stop-color:#BC2438"/>
			<stop  offset="1" style="stop-color:#881D1E"/>
		</linearGradient>
		<path fill-rule="evenodd" clip-rule="evenodd" fill="url(#SVGID_20_)" d="M57.56,16.822c0.132,4.349,0.263,11.789,0.329,11.987
			c0.065,0.328,0.395,0.525,0.79,0.66c0.659,0.13,1.382,0,1.581-0.134c0-0.461,0.197-2.173,0.922-8.629
			c0.197-1.578,0.329-3.092,0.461-3.884c-0.33,0.329-0.791,0.658-1.186,0.792C59.008,17.944,58.021,17.283,57.56,16.822z"/>
		<linearGradient id="SVGID_21_" gradientUnits="userSpaceOnUse" x1="59.0882" y1="15.6784" x2="61.727" y2="15.6784">
			<stop  offset="0" style="stop-color:#881D1E"/>
			<stop  offset="0" style="stop-color:#881D1E"/>
			<stop  offset="0.54" style="stop-color:#BC2438"/>
			<stop  offset="1" style="stop-color:#881D1E"/>
		</linearGradient>
		<path fill-rule="evenodd" clip-rule="evenodd" fill="url(#SVGID_21_)" d="M59.205,14.583c0,0.265,0.133,2.04,0.133,2.306
			c0.395,0.065,1.449,0,2.238-1.252c0.131-0.133,0.131-0.329,0-0.526c-0.065-0.197-0.461-0.594-1.516-0.659
			C59.799,14.451,59.402,14.517,59.205,14.583L59.205,14.583z M59.008,14.583v-0.066V14.583z"/>
		<linearGradient id="SVGID_22_" gradientUnits="userSpaceOnUse" x1="58.1736" y1="15.9992" x2="59.0534" y2="15.9992">
			<stop  offset="0" style="stop-color:#881D1E"/>
			<stop  offset="0" style="stop-color:#881D1E"/>
			<stop  offset="0.54" style="stop-color:#BC2438"/>
			<stop  offset="1" style="stop-color:#881D1E"/>
		</linearGradient>
		<path fill-rule="evenodd" clip-rule="evenodd" fill="url(#SVGID_22_)" d="M58.613,16.691c-0.461-0.197-0.791-0.462-0.858-0.591
			l0,0c0-0.529,0.462-0.725,0.725-0.791C58.547,15.637,58.613,16.296,58.613,16.691z"/>
		<linearGradient id="SVGID_23_" gradientUnits="userSpaceOnUse" x1="56.3451" y1="39.9062" x2="60.402" y2="39.9062">
			<stop  offset="0" style="stop-color:#881D1E"/>
			<stop  offset="0" style="stop-color:#881D1E"/>
			<stop  offset="0.54" style="stop-color:#BC2438"/>
			<stop  offset="1" style="stop-color:#881D1E"/>
		</linearGradient>
		<path fill-rule="evenodd" clip-rule="evenodd" fill="url(#SVGID_23_)" d="M59.996,32.959c0.13,1.449,0.461,9.813,0.592,13.828
			c-0.461-0.526-1.383-1.052-2.832-0.723c-0.461,0.13-0.922,0.526-1.25,0.79c0.131-0.79,0.264-2.44,0.395-4.082
			c0.659-6.719,0.922-9.09,0.922-9.813C58.218,33.088,58.941,33.287,59.996,32.959z"/>
		<linearGradient id="SVGID_24_" gradientUnits="userSpaceOnUse" x1="56.3447" y1="47.9976" x2="58.984" y2="47.9976">
			<stop  offset="0" style="stop-color:#881D1E"/>
			<stop  offset="0" style="stop-color:#881D1E"/>
			<stop  offset="0.54" style="stop-color:#BC2438"/>
			<stop  offset="1" style="stop-color:#881D1E"/>
		</linearGradient>
		<path fill-rule="evenodd" clip-rule="evenodd" fill="url(#SVGID_24_)" d="M56.57,48.038c-0.064,0.133-0.064,0.33,0,0.53
			c0.133,0.196,0.462,0.657,1.515,0.657c0.331,0,0.659-0.067,0.922-0.067c-0.066-0.328-0.197-2.105-0.197-2.371
			C58.416,46.723,57.428,46.787,56.57,48.038L56.57,48.038z M59.14,49.158L59.14,49.158L59.14,49.158z"/>
		<linearGradient id="SVGID_25_" gradientUnits="userSpaceOnUse" x1="59.0893" y1="47.6762" x2="59.9644" y2="47.6762">
			<stop  offset="0" style="stop-color:#881D1E"/>
			<stop  offset="0" style="stop-color:#881D1E"/>
			<stop  offset="0.54" style="stop-color:#BC2438"/>
			<stop  offset="1" style="stop-color:#881D1E"/>
		</linearGradient>
		<path fill-rule="evenodd" clip-rule="evenodd" fill="url(#SVGID_25_)" d="M60.391,47.578L60.391,47.578
			c0,0.526-0.461,0.726-0.725,0.79c-0.064-0.263-0.064-0.987-0.131-1.382C59.996,47.182,60.391,47.446,60.391,47.578z"/>
		<linearGradient id="SVGID_26_" gradientUnits="userSpaceOnUse" x1="57.258" y1="30.9139" x2="60.6484" y2="30.9139">
			<stop  offset="0" style="stop-color:#881D1E"/>
			<stop  offset="0" style="stop-color:#881D1E"/>
			<stop  offset="0.54" style="stop-color:#BC2438"/>
			<stop  offset="1" style="stop-color:#881D1E"/>
		</linearGradient>
		<path fill-rule="evenodd" clip-rule="evenodd" fill="url(#SVGID_26_)" d="M57.229,29.27c1.121,1.711,3.293,0.592,3.359,0.525
			c0.066,0-0.066,2.306-0.066,2.306s-2.172,1.186-3.293-0.261V29.27z"/>
		<linearGradient id="SVGID_27_" gradientUnits="userSpaceOnUse" x1="60.917" y1="33.4846" x2="62.8711" y2="33.4846">
			<stop  offset="0" style="stop-color:#881D1E"/>
			<stop  offset="0" style="stop-color:#881D1E"/>
			<stop  offset="0.54" style="stop-color:#BC2438"/>
			<stop  offset="1" style="stop-color:#881D1E"/>
		</linearGradient>
		<path fill-rule="evenodd" clip-rule="evenodd" fill="url(#SVGID_27_)" d="M61.05,30.783c0.132,0.066,1.448,2.175,0.79,3.624
			c-0.527,1.25-0.988,0.657-1.119,1.777c0,0.066-0.199-2.832-0.199-2.832s0.528-0.2,0.528-1.384
			C61.05,31.641,61.05,30.783,61.05,30.783z"/>
		<linearGradient id="SVGID_28_" gradientUnits="userSpaceOnUse" x1="60.9181" y1="37.5765" x2="64.3603" y2="37.5765">
			<stop  offset="0" style="stop-color:#881D1E"/>
			<stop  offset="0" style="stop-color:#881D1E"/>
			<stop  offset="0.54" style="stop-color:#BC2438"/>
			<stop  offset="1" style="stop-color:#881D1E"/>
		</linearGradient>
		<path fill-rule="evenodd" clip-rule="evenodd" fill="url(#SVGID_28_)" d="M60.787,36.776c-0.066,0.132-0.199,1.254,1.382,1.975
			c0.329,0.134,1.184,0.858,1.184,0.858l-0.395-1.382l1.055-0.462c0,0-2.042-0.199-2.503-1.053
			c-0.132-0.196-0.065-0.922,0.065-1.119C61.707,35.33,60.787,36.185,60.787,36.776z"/>
		<linearGradient id="SVGID_29_" gradientUnits="userSpaceOnUse" x1="55.4297" y1="33.7138" x2="57.3926" y2="33.7138">
			<stop  offset="0" style="stop-color:#881D1E"/>
			<stop  offset="0" style="stop-color:#881D1E"/>
			<stop  offset="0.54" style="stop-color:#BC2438"/>
			<stop  offset="1" style="stop-color:#881D1E"/>
		</linearGradient>
		<path fill-rule="evenodd" clip-rule="evenodd" fill="url(#SVGID_29_)" d="M56.77,30.98c-0.199,0.068-1.516,2.108-0.988,3.623
			c0.526,1.253,0.988,0.66,1.119,1.844l0.264-3.359c0,0-0.527-0.329-0.527-1.248C56.637,31.573,56.77,30.98,56.77,30.98z"/>
		<linearGradient id="SVGID_30_" gradientUnits="userSpaceOnUse" x1="53.6012" y1="37.685" x2="57.0287" y2="37.685">
			<stop  offset="0" style="stop-color:#881D1E"/>
			<stop  offset="0" style="stop-color:#881D1E"/>
			<stop  offset="0.54" style="stop-color:#BC2438"/>
			<stop  offset="1" style="stop-color:#881D1E"/>
		</linearGradient>
		<path fill-rule="evenodd" clip-rule="evenodd" fill="url(#SVGID_30_)" d="M56.834,36.974c0,0.13,0.066,1.253-1.514,1.911
			c-0.33,0.132-1.185,0.791-1.185,0.791l0.394-1.319l-1.053-0.526c0,0,2.041-0.129,2.568-0.921c0.131-0.197,0.131-0.922,0-1.185
			C55.912,35.527,56.834,36.382,56.834,36.974z"/>
		<path fill-rule="evenodd" clip-rule="evenodd" fill="#881D1E" d="M51.039,0.03c-0.395,0.065-1.12,0.33-3.029,1.447
			c-1.514,0.923-2.108,1.317-2.371,1.516c-3.885-1.315-7.969-2.041-12.051-2.041c-4.215,0-8.299,0.726-12.185,2.041
			c-0.923-0.789-4.148-2.633-5.335-2.897C16.004,0.03,15.344,0.03,15.344,0.03c-0.131,0-2.766,0.33-3.622,2.898
			c-0.856,2.372,0.528,4.214,0.593,4.345h0.066v0.066l3.754,3.754c0,0,0.856-1.185,1.186-1.582c0.396,0.462,1.977,2.239,1.977,2.239
			l0.592-0.328c4.281-2.176,8.891-3.292,13.699-3.292c4.741,0,9.35,1.117,13.566,3.292l0.592,0.328c0,0,1.582-1.777,1.975-2.239
			c0.331,0.397,1.188,1.582,1.188,1.582l3.754-3.821h0.065c0.066-0.13,1.448-1.973,0.659-4.345C54.463,0.36,51.83,0.03,51.764,0.03
			C51.764,0.03,51.303-0.037,51.039,0.03z"/>
		<path fill-rule="evenodd" clip-rule="evenodd" fill="#F0CF1B" d="M55.057,3.058C54.266,0.622,51.83,0.36,51.697,0.36h-0.461
			c-0.264,0-0.658,0-3.029,1.447c-1.777,1.055-2.305,1.381-2.502,1.515C41.82,2.004,37.736,1.28,33.588,1.28
			c-4.215,0-8.365,0.724-12.25,2.107c-0.791-0.789-4.676-3.028-5.532-3.028h-0.462c-0.064,0-2.502,0.262-3.357,2.698
			c-0.725,2.242,0.525,3.951,0.592,4.019h0.066l3.49,3.491l1.186-1.581l2.041,2.369l0.33-0.196
			c4.412-2.241,9.088-3.358,13.896-3.358c4.807,0,9.416,1.118,13.697,3.358l0.395,0.13l2.041-2.303l1.188,1.581l3.555-3.491l0,0
			C54.529,7.009,55.781,5.299,55.057,3.058z"/>
		<linearGradient id="SVGID_31_" gradientUnits="userSpaceOnUse" x1="47.507" y1="7.1753" x2="51.6178" y2="0.3339">
			<stop  offset="0" style="stop-color:#881D1E"/>
			<stop  offset="0" style="stop-color:#881D1E"/>
			<stop  offset="0.54" style="stop-color:#BC2438"/>
			<stop  offset="1" style="stop-color:#881D1E"/>
		</linearGradient>
		<path fill-rule="evenodd" clip-rule="evenodd" fill="url(#SVGID_31_)" d="M51.764,5.891c0,0-1.186-2.239-0.527-4.874
			C51.369,0.36,46.1,3.718,46.1,3.718c1.91,0.525,5.4,2.37,5.4,2.37L51.764,5.891z"/>
		<linearGradient id="SVGID_32_" gradientUnits="userSpaceOnUse" x1="54.8212" y1="1.058" x2="48.7627" y2="9.3969">
			<stop  offset="0" style="stop-color:#881D1E"/>
			<stop  offset="0" style="stop-color:#881D1E"/>
			<stop  offset="0.54" style="stop-color:#BC2438"/>
			<stop  offset="1" style="stop-color:#881D1E"/>
		</linearGradient>
		<path fill-rule="evenodd" clip-rule="evenodd" fill="url(#SVGID_32_)" d="M51.633,0.885c0.263,0.066,2.238,0.33,2.896,2.371
			c0.659,1.911-0.526,3.49-0.526,3.49l-3.03,3.028l-0.921-1.25l2.173-2.437c-0.264-0.921-0.658-1.052-0.791-3.49
			C51.369,1.807,51.633,0.885,51.633,0.885z"/>
		<linearGradient id="SVGID_33_" gradientUnits="userSpaceOnUse" x1="15.7211" y1="6.7592" x2="19.879" y2="-0.1608">
			<stop  offset="0" style="stop-color:#881D1E"/>
			<stop  offset="0" style="stop-color:#881D1E"/>
			<stop  offset="0.54" style="stop-color:#BC2438"/>
			<stop  offset="1" style="stop-color:#881D1E"/>
		</linearGradient>
		<path fill-rule="evenodd" clip-rule="evenodd" fill="url(#SVGID_33_)" d="M15.279,5.954c0,0,1.185-2.302,0.526-4.937
			c-0.132-0.657,5.136,2.701,5.136,2.701c-1.645,0.461-5.465,2.434-5.465,2.434L15.279,5.954z"/>
		<linearGradient id="SVGID_34_" gradientUnits="userSpaceOnUse" x1="17.8658" y1="1.455" x2="11.8075" y2="9.7936">
			<stop  offset="0" style="stop-color:#881D1E"/>
			<stop  offset="0" style="stop-color:#881D1E"/>
			<stop  offset="0.54" style="stop-color:#BC2438"/>
			<stop  offset="1" style="stop-color:#881D1E"/>
		</linearGradient>
		<path fill-rule="evenodd" clip-rule="evenodd" fill="url(#SVGID_34_)" d="M15.41,0.885c-0.264,0.066-2.238,0.33-2.898,2.371
			c-0.658,1.911,0.527,3.49,0.527,3.49l3.029,3.028l0.923-1.25l-2.173-2.437c0.264-0.921,0.658-1.052,0.856-3.49
			C15.674,1.807,15.41,0.885,15.41,0.885z"/>
		<linearGradient id="SVGID_35_" gradientUnits="userSpaceOnUse" x1="16.0983" y1="6.2527" x2="51.5289" y2="6.2527">
			<stop  offset="0" style="stop-color:#881D1E"/>
			<stop  offset="0" style="stop-color:#881D1E"/>
			<stop  offset="0.54" style="stop-color:#BC2438"/>
			<stop  offset="1" style="stop-color:#881D1E"/>
		</linearGradient>
		<path fill-rule="evenodd" clip-rule="evenodd" fill="url(#SVGID_35_)" d="M33.588,7.272c5.004,0,9.746,1.187,13.961,3.36
			l3.688-4.215c-5.201-2.899-11.261-4.61-17.648-4.61c-6.455,0-12.448,1.711-17.782,4.675l3.688,4.217
			C23.774,8.459,28.516,7.272,33.588,7.272z"/>
		<path fill-rule="evenodd" clip-rule="evenodd" fill="#F0CF1B" d="M20.746,7.406l-0.924-0.989
			c-0.064-0.133-0.131-0.197-0.197-0.197l0.396-0.133c0,0,0,0,0,0.065c0,0,0.065,0.068,0.065,0.132l0.856,0.921V6.02
			c0-0.066,0-0.066,0-0.066c-0.065-0.13-0.131-0.13-0.195-0.194l0.393-0.133v1.974l-0.198-0.063
			C20.877,7.538,20.811,7.469,20.746,7.406z"/>
		<path fill-rule="evenodd" clip-rule="evenodd" fill="#F0CF1B" d="M21.667,5.759c-0.065-0.065-0.132-0.2-0.264-0.2l0.526-0.13
			c-0.065,0.066-0.065,0.13-0.065,0.266l0.461,1.185c0,0.065,0.131,0.129,0.196,0.129l-0.526,0.197c0.064,0,0.13-0.129,0.064-0.261
			L21.667,5.759z"/>
		<path fill-rule="evenodd" clip-rule="evenodd" fill="#F0CF1B" d="M22.457,5.559c0-0.13-0.066-0.194-0.131-0.26l0.789-0.264
			c0,0,0.066,0,0.133-0.066l0.064,0.331c-0.064-0.07-0.197,0-0.394,0c-0.066,0.065-0.131,0.065-0.197,0.065l0.131,0.459l0.264-0.064
			c0.066,0,0.133,0,0.133-0.065l0.131,0.259c-0.066,0-0.197,0-0.264,0L22.918,6.02l0.197,0.594c0.133,0,0.264,0,0.33-0.066
			c0.197-0.066,0.329-0.131,0.461-0.328L23.84,6.614l-0.988,0.331c0-0.134,0-0.199,0-0.265L22.457,5.559z"/>
		<path fill-rule="evenodd" clip-rule="evenodd" fill="#F0CF1B" d="M24.169,4.903l-0.198,0.066c-0.132,0.066-0.263,0.13-0.329,0.198
			V4.835c0,0,0.066,0,0.132,0l0.987-0.262c0.066-0.064,0.066-0.064,0.133-0.064v0.326c-0.066-0.063-0.133-0.063-0.264-0.063
			l-0.198,0.063l0.329,1.317c0.066,0.132,0.133,0.132,0.197,0.199l-0.526,0.131c0.065-0.064,0.132-0.131,0.065-0.197L24.169,4.903z"
			/>
		<path fill-rule="evenodd" clip-rule="evenodd" fill="#F0CF1B" d="M25.355,4.772c-0.065-0.263-0.197-0.263-0.263-0.263l0.395-0.134
			l1.318,1.12L26.606,4.44c-0.065-0.131-0.133-0.261-0.262-0.261l0.525-0.066c-0.064,0.066-0.131,0.066-0.131,0.262l0.395,1.516
			c-0.131,0.063-0.264,0-0.328-0.067l-1.318-1.052l0.264,1.052c0.066,0.197,0.131,0.197,0.197,0.264l-0.461,0.065
			c0.066-0.065,0.133-0.065,0.133-0.261L25.355,4.772z"/>
		<path fill-rule="evenodd" clip-rule="evenodd" fill="#F0CF1B" d="M28.121,3.849L28.121,3.849l0.922,1.381
			c0.066,0.135,0.132,0.135,0.197,0.199l-0.526,0.13c0.065-0.064,0.065-0.13,0.065-0.13c0-0.064,0-0.129-0.065-0.129l-0.198-0.397
			l-0.394,0.066V4.772l0.264-0.066l-0.264-0.397V3.849z M27.857,4.113V4.048c0-0.067-0.066-0.067-0.133-0.134l0.397-0.065v0.46
			l-0.066-0.196l-0.131,0.722l0.197-0.063v0.197l-0.264,0.066l-0.066,0.459v0.064c0,0.067,0.066,0.067,0.133,0.135l-0.527,0.065
			c0.132-0.133,0.132-0.265,0.197-0.331L27.857,4.113z"/>
		<path fill-rule="evenodd" clip-rule="evenodd" fill="#F0CF1B" d="M29.504,3.914c0-0.065,0-0.065,0-0.065
			c0-0.131-0.066-0.131-0.131-0.197l0.461-0.069l0.723,1.252l0.33-1.317l0.461-0.064c-0.065,0.064-0.065,0.129-0.065,0.198l0,0
			l0.329,1.25c0,0.133,0.066,0.197,0.197,0.264L31.217,5.23c0.131-0.063,0.131-0.194,0.131-0.261l0,0l-0.33-1.186l-0.395,1.516
			c-0.066,0-0.197-0.133-0.264-0.264l-0.658-1.122v1.185c0,0.13,0,0.2,0.133,0.266l-0.461,0.064
			c0.064-0.064,0.131-0.199,0.131-0.262V3.914z"/>
		<path fill-rule="evenodd" clip-rule="evenodd" fill="#F0CF1B" d="M35.76,3.387h0.197l0.594,1.515
			c0.066,0.133,0.132,0.133,0.197,0.264l-0.592-0.067c0.131,0,0.131-0.064,0.131-0.064c0-0.066,0-0.133-0.066-0.133L36.09,4.44
			h-0.33V4.243h0.264l-0.197-0.661L35.76,3.652V3.387z M35.629,3.518V3.454c0-0.066,0-0.066-0.066-0.066h0.197v0.265l-0.197,0.591
			h0.197V4.44h-0.329L35.3,4.903c-0.066,0-0.066,0.066-0.066,0.066c0,0.066,0.066,0.066,0.132,0.13l-0.527-0.064
			c0.133-0.066,0.199-0.201,0.264-0.264L35.629,3.518z"/>
		<path fill-rule="evenodd" clip-rule="evenodd" fill="#F0CF1B" d="M37.078,3.652c0-0.134,0-0.198-0.066-0.265l0.461,0.066
			c-0.066,0.064-0.066,0.129-0.131,0.198l-0.066,0.921c-0.066,0.396,0.197,0.462,0.329,0.526c0.329,0,0.461-0.13,0.526-0.328
			l0.067-0.923c0.066-0.197,0-0.266-0.067-0.331l0.461,0.065c-0.066,0.069-0.131,0.135-0.131,0.266l-0.131,1.187
			c0,0.131,0,0.264,0.131,0.264h-0.395v-0.2c-0.065,0.067-0.132,0.2-0.526,0.2c-0.461-0.07-0.594-0.397-0.594-0.66L37.078,3.652z"/>
		<path fill-rule="evenodd" clip-rule="evenodd" fill="#F0CF1B" d="M39.515,3.718h0.065c0.064,0,0.33,0.065,0.396,0.131L39.91,4.113
			c-0.066-0.065-0.266-0.199-0.462-0.199c-0.065-0.065-0.198,0-0.263,0.066c-0.066,0-0.066,0.067-0.066,0.067
			c0,0.132,0.131,0.262,0.264,0.327l0.262,0.198c0.133,0.133,0.331,0.262,0.266,0.462c-0.066,0.393-0.396,0.524-0.857,0.459
			c-0.131,0-0.264-0.066-0.395-0.13v-0.33c0.131,0.131,0.328,0.264,0.461,0.264c0.197,0,0.396,0,0.461-0.133
			c0-0.067,0-0.067,0-0.067c0-0.13-0.065-0.265-0.197-0.393l-0.264-0.133c-0.133-0.133-0.33-0.264-0.33-0.46
			C38.856,3.718,39.186,3.652,39.515,3.718z"/>
		<path fill-rule="evenodd" clip-rule="evenodd" fill="#F0CF1B" d="M40.371,5.495c0,0.064-0.066,0.132-0.133,0.132l0.527,0.133
			c-0.066-0.065-0.131-0.133-0.131-0.265l0.328-1.315l0.197,0.064c0.133,0,0.197,0.066,0.197,0.131l0.198-0.262
			c-0.065,0-0.065,0-0.132-0.065l-1.053-0.199c-0.066,0-0.066,0-0.133-0.066l-0.131,0.33c0.064-0.065,0.197-0.065,0.394,0h0.198
			L40.371,5.495z"/>
		<path fill-rule="evenodd" clip-rule="evenodd" fill="#F0CF1B" d="M41.688,4.44c0.066-0.261,0-0.261-0.066-0.327l0.594,0.13
			c0.328,0.131,0.526,0.266,0.461,0.591c-0.066,0.265-0.33,0.395-0.527,0.332c0.197,0.393,0.328,0.787,0.593,1.054l-0.329-0.068
			c-0.066,0-0.197-0.065-0.264-0.261L41.82,5.099c0.328-0.064,0.525-0.064,0.592-0.265V4.772c0-0.132-0.066-0.263-0.264-0.332
			c-0.066,0-0.132,0-0.197,0l-0.33,1.254c0,0.129,0,0.196,0.066,0.259l-0.527-0.13c0.066,0,0.133-0.064,0.197-0.197L41.688,4.44z"/>
		<path fill-rule="evenodd" clip-rule="evenodd" fill="#F0CF1B" d="M43.662,4.903c0.066,0,0.066-0.068,0.066-0.068
			c0-0.063,0-0.063-0.066-0.129l0.396,0.129l0.131,1.647c0,0.132,0.066,0.132,0.133,0.264l-0.528-0.198c0.067,0,0.067,0,0.132-0.066
			c0-0.064,0-0.064,0-0.131l-0.065-0.46l-0.199-0.067V5.627l0.199,0.068V5.035l-0.199,0.264V4.969V4.903z M43.662,5.823
			l-0.395-0.129l-0.33,0.393v0.065c0,0.068,0,0.132,0.066,0.132l-0.527-0.132c0.199-0.065,0.265-0.132,0.331-0.198l0.854-0.985
			v0.331L43.4,5.559l0.262,0.067V5.823z"/>
		<path fill-rule="evenodd" clip-rule="evenodd" fill="#F0CF1B" d="M45.112,5.429c0.065-0.129,0-0.129,0-0.262l0.461,0.198
			c-0.065,0.064-0.132,0-0.198,0.194l-0.527,1.187c0.133,0.065,0.199,0.134,0.33,0.134c0.133,0.065,0.33,0.129,0.461,0.065
			l-0.264,0.261l-0.987-0.395c0.132-0.065,0.198-0.13,0.198-0.197V6.548L45.112,5.429z"/>
		<path fill-rule="evenodd" clip-rule="evenodd" fill="#F0CF1B" d="M46.496,6.02c0-0.066,0-0.197-0.066-0.261l0.525,0.194
			c-0.131,0-0.196,0.066-0.262,0.198l-0.527,1.12c-0.066,0.066,0,0.266,0.065,0.266l-0.526-0.199c0.064,0,0.133-0.066,0.197-0.133
			L46.496,6.02z"/>
		<path fill-rule="evenodd" clip-rule="evenodd" fill="#F0CF1B" d="M47.68,6.548c0-0.066,0-0.066,0-0.066
			c0.066-0.064,0-0.131,0-0.131l0.396,0.197L47.879,8.13c0,0.131,0.064,0.197,0.064,0.329l-0.395-0.264l0,0l0.066-0.064
			c0-0.066,0-0.132,0-0.132l0.064-0.46l-0.131-0.069V7.272l0.131,0.066l0.132-0.658L47.549,6.88V6.614L47.68,6.548z M47.549,8.195
			h-0.066C47.482,8.195,47.482,8.195,47.549,8.195L47.549,8.195L47.549,8.195z M47.549,7.469l-0.461-0.197l-0.329,0.329
			c0,0-0.066,0-0.066,0.067c0,0,0,0.067,0,0.133l-0.462-0.263c0.198,0,0.329-0.069,0.395-0.132l0.922-0.792V6.88l-0.264,0.262
			l0.264,0.13V7.469z"/>
		<polygon fill-rule="evenodd" clip-rule="evenodd" fill="#F0CF1B" points="33.191,3.914 33.324,3.652 33.389,3.914 33.652,3.849 
			33.588,4.048 33.785,4.243 33.521,4.309 33.521,4.509 33.324,4.375 33.127,4.573 33.127,4.309 32.863,4.243 33.061,4.113 
			32.928,3.849 		"/>
		<path fill-rule="evenodd" clip-rule="evenodd" fill="#881D1E" d="M31.217,5.627c-0.199,0-0.396,0.133-1.055,0.393
			c-0.789,0.331-2.107,0.925-2.832,1.057l-1.58,0.195l-0.131,0.462c-0.066,0-0.791,2.106-0.791,2.106l0.988,0.067
			c0.131,0,1.119,0.129,1.646,0c0.791-0.135,1.514-0.33,2.238-0.528c0.855-0.262,1.845-0.526,2.239-0.461
			c0.527,0.068,0.724,0.328,0.724,0.328l0.527,0.727l0.658-0.661c0.133-0.131,0.527-0.46,0.923-0.46c0.396,0,1.184,0.264,1.91,0.46
			c0.79,0.198,1.581,0.46,2.437,0.595c0.525,0.066,1.449,0,1.646,0l0.988-0.067l-0.857-2.569L39.25,7.077
			c-0.658-0.132-2.041-0.726-2.832-1.057c-0.592-0.261-0.855-0.393-0.987-0.393c-0.854-0.198-1.581-0.132-2.106,0.133
			C32.731,5.495,32.007,5.429,31.217,5.627z"/>
		<path fill-rule="evenodd" clip-rule="evenodd" fill="#F0CF1B" d="M31.217,5.823c-0.133,0.067-0.33,0.13-0.922,0.397
			c-0.857,0.328-2.24,0.921-2.898,1.052l-1.449,0.197l-0.131,0.332l-0.659,1.842l0.659,0.064c0.131,0,1.119,0.066,1.646,0
			c0.723-0.129,1.449-0.327,2.173-0.589c0.921-0.264,1.91-0.527,2.305-0.46c0.658,0.129,0.923,0.46,0.923,0.46l0.394,0.525
			l0.395-0.461c0.197-0.129,0.659-0.524,1.12-0.524c0.396,0,1.184,0.196,1.975,0.46c0.725,0.195,1.581,0.46,2.438,0.589
			c0.525,0.066,1.449,0,1.58,0l0.658-0.064l-0.725-2.174l-1.514-0.197c-0.66-0.13-2.043-0.724-2.833-1.052
			c-0.659-0.267-0.855-0.33-0.987-0.397c-1.054-0.197-1.713-0.064-2.041,0.13C32.928,5.759,32.27,5.627,31.217,5.823z"/>
		<linearGradient id="SVGID_36_" gradientUnits="userSpaceOnUse" x1="26.1591" y1="7.7408" x2="40.9775" y2="7.7408">
			<stop  offset="0" style="stop-color:#881D1E"/>
			<stop  offset="0" style="stop-color:#881D1E"/>
			<stop  offset="0.54" style="stop-color:#BC2438"/>
			<stop  offset="1" style="stop-color:#881D1E"/>
		</linearGradient>
		<path fill-rule="evenodd" clip-rule="evenodd" fill="url(#SVGID_36_)" d="M40.305,7.998c0,0-0.725-0.066-1.186-0.197
			c-1.119-0.2-3.557-1.384-3.886-1.45c-1.384-0.263-1.845,0.197-1.909,0.33c-0.133-0.132-0.594-0.593-1.977-0.33
			c-0.33,0.066-2.766,1.25-3.885,1.45c-0.396,0.13-1.186,0.197-1.186,0.197l-0.396,1.184c0,0,0.988,0.065,1.449,0
			c1.779-0.328,3.82-1.184,4.742-1.052c0.855,0.131,1.185,0.657,1.185,0.657s0.658-0.657,1.515-0.657
			c0.921,0,2.767,0.724,4.478,1.052c0.46,0.065,1.449,0,1.449,0L40.305,7.998z"/>
	</g>
</g>
</svg>
